<svg xmlns="http://www.w3.org/2000/svg" xmlns:xlink="http://www.w3.org/1999/xlink" width="500" zoomAndPan="magnify" viewBox="0 0 375 374.999991" height="500" preserveAspectRatio="xMidYMid meet" version="1.0"><defs><g/><clipPath id="565e60731e"><path d="M 235.617188 138.546875 L 285.933594 138.546875 L 285.933594 188.863281 L 235.617188 188.863281 Z M 235.617188 138.546875 " clip-rule="nonzero"/></clipPath><clipPath id="7628fe6422"><path d="M 260.773438 138.546875 C 246.882812 138.546875 235.617188 149.8125 235.617188 163.707031 C 235.617188 177.597656 246.882812 188.863281 260.773438 188.863281 C 274.667969 188.863281 285.933594 177.597656 285.933594 163.707031 C 285.933594 149.8125 274.667969 138.546875 260.773438 138.546875 Z M 260.773438 138.546875 " clip-rule="nonzero"/></clipPath><clipPath id="bc6e8b3cc4"><path d="M 238.25 162.238281 L 309.078125 162.238281 L 309.078125 233.066406 L 238.25 233.066406 Z M 238.25 162.238281 " clip-rule="nonzero"/></clipPath><clipPath id="d531701010"><path d="M 273.664062 162.238281 C 254.105469 162.238281 238.25 178.09375 238.25 197.652344 C 238.25 217.210938 254.105469 233.066406 273.664062 233.066406 C 293.222656 233.066406 309.078125 217.210938 309.078125 197.652344 C 309.078125 178.09375 293.222656 162.238281 273.664062 162.238281 Z M 273.664062 162.238281 " clip-rule="nonzero"/></clipPath><clipPath id="b7c71e5406"><path d="M 242.210938 145.140625 L 279.339844 145.140625 L 279.339844 182.269531 L 242.210938 182.269531 Z M 242.210938 145.140625 " clip-rule="nonzero"/></clipPath><clipPath id="c4c54556b7"><path d="M 260.773438 145.140625 C 250.523438 145.140625 242.210938 153.453125 242.210938 163.707031 C 242.210938 173.957031 250.523438 182.269531 260.773438 182.269531 C 271.027344 182.269531 279.339844 173.957031 279.339844 163.707031 C 279.339844 153.453125 271.027344 145.140625 260.773438 145.140625 Z M 260.773438 145.140625 " clip-rule="nonzero"/></clipPath><clipPath id="192a27e7e8"><path d="M 244.992188 168.980469 L 302.335938 168.980469 L 302.335938 226.324219 L 244.992188 226.324219 Z M 244.992188 168.980469 " clip-rule="nonzero"/></clipPath><clipPath id="4468c3a1c6"><path d="M 273.664062 168.980469 C 257.828125 168.980469 244.992188 181.816406 244.992188 197.652344 C 244.992188 213.488281 257.828125 226.324219 273.664062 226.324219 C 289.5 226.324219 302.335938 213.488281 302.335938 197.652344 C 302.335938 181.816406 289.5 168.980469 273.664062 168.980469 Z M 273.664062 168.980469 " clip-rule="nonzero"/></clipPath><clipPath id="41c64378c2"><path d="M 87.960938 129.15625 L 138.273438 129.15625 L 138.273438 179.472656 L 87.960938 179.472656 Z M 87.960938 129.15625 " clip-rule="nonzero"/></clipPath><clipPath id="4d73b2cdcd"><path d="M 113.117188 129.15625 C 99.222656 129.15625 87.960938 140.421875 87.960938 154.316406 C 87.960938 168.207031 99.222656 179.472656 113.117188 179.472656 C 127.011719 179.472656 138.273438 168.207031 138.273438 154.316406 C 138.273438 140.421875 127.011719 129.15625 113.117188 129.15625 Z M 113.117188 129.15625 " clip-rule="nonzero"/></clipPath><clipPath id="6b4eb0045a"><path d="M 67.449219 154.316406 L 138.273438 154.316406 L 138.273438 225.140625 L 67.449219 225.140625 Z M 67.449219 154.316406 " clip-rule="nonzero"/></clipPath><clipPath id="08365132fa"><path d="M 102.863281 154.316406 C 83.304688 154.316406 67.449219 170.167969 67.449219 189.726562 C 67.449219 209.285156 83.304688 225.140625 102.863281 225.140625 C 122.421875 225.140625 138.273438 209.285156 138.273438 189.726562 C 138.273438 170.167969 122.421875 154.316406 102.863281 154.316406 Z M 102.863281 154.316406 " clip-rule="nonzero"/></clipPath><clipPath id="862578f357"><path d="M 94.554688 135.75 L 131.683594 135.75 L 131.683594 172.878906 L 94.554688 172.878906 Z M 94.554688 135.75 " clip-rule="nonzero"/></clipPath><clipPath id="b38365f2f6"><path d="M 113.117188 135.75 C 102.863281 135.75 94.554688 144.0625 94.554688 154.316406 C 94.554688 164.566406 102.863281 172.878906 113.117188 172.878906 C 123.371094 172.878906 131.683594 164.566406 131.683594 154.316406 C 131.683594 144.0625 123.371094 135.75 113.117188 135.75 Z M 113.117188 135.75 " clip-rule="nonzero"/></clipPath><clipPath id="b4ded04980"><path d="M 74.191406 161.054688 L 131.535156 161.054688 L 131.535156 218.398438 L 74.191406 218.398438 Z M 74.191406 161.054688 " clip-rule="nonzero"/></clipPath><clipPath id="e3934947a0"><path d="M 102.863281 161.054688 C 87.027344 161.054688 74.191406 173.890625 74.191406 189.726562 C 74.191406 205.5625 87.027344 218.398438 102.863281 218.398438 C 118.699219 218.398438 131.535156 205.5625 131.535156 189.726562 C 131.535156 173.890625 118.699219 161.054688 102.863281 161.054688 Z M 102.863281 161.054688 " clip-rule="nonzero"/></clipPath><clipPath id="28416cac50"><path d="M 101 87.453125 L 268 87.453125 L 268 265 L 101 265 Z M 101 87.453125 " clip-rule="nonzero"/></clipPath><clipPath id="c8c3f6ef96"><path d="M 148.726562 265.019531 L 220.140625 265.019531 C 230.992188 265.019531 240.289062 257.246094 242.207031 246.566406 L 267.515625 105.90625 C 268.335938 101.335938 267.089844 96.636719 264.113281 93.074219 C 261.132812 89.511719 256.726562 87.453125 252.085938 87.453125 L 116.78125 87.453125 C 112.140625 87.453125 107.734375 89.511719 104.753906 93.074219 C 101.777344 96.636719 100.53125 101.335938 101.351562 105.90625 L 126.65625 246.566406 C 128.578125 257.246094 137.875 265.019531 148.726562 265.019531 Z M 148.726562 265.019531 " clip-rule="nonzero"/></clipPath><clipPath id="ff571ba09e"><path d="M 101 87.457031 L 268 87.457031 L 268 265.144531 L 101 265.144531 Z M 101 87.457031 " clip-rule="nonzero"/></clipPath><clipPath id="08905b91db"><path d="M 148.726562 265.011719 L 220.132812 265.011719 C 230.984375 265.011719 240.28125 257.242188 242.203125 246.558594 L 267.503906 105.910156 C 268.328125 101.339844 267.082031 96.640625 264.101562 93.078125 C 261.125 89.515625 256.71875 87.457031 252.078125 87.457031 L 116.78125 87.457031 C 112.136719 87.457031 107.734375 89.515625 104.753906 93.078125 C 101.777344 96.640625 100.53125 101.339844 101.351562 105.910156 L 126.65625 246.558594 C 128.578125 257.242188 137.871094 265.011719 148.726562 265.011719 Z M 148.726562 265.011719 " clip-rule="nonzero"/></clipPath><clipPath id="996b460ba2"><path d="M 85.703125 225.78125 L 283.304688 225.78125 L 283.304688 287.546875 L 85.703125 287.546875 Z M 85.703125 225.78125 " clip-rule="nonzero"/></clipPath><clipPath id="f213719997"><path d="M 124.554688 287.546875 L 244.308594 287.546875 C 251.222656 287.546875 257.554688 283.691406 260.730469 277.554688 L 282.335938 235.773438 C 283.433594 233.652344 283.347656 231.109375 282.105469 229.066406 C 280.863281 227.027344 278.644531 225.78125 276.253906 225.78125 L 92.609375 225.78125 C 90.222656 225.78125 88.003906 227.027344 86.761719 229.066406 C 85.519531 231.109375 85.429688 233.652344 86.53125 235.773438 L 108.136719 277.554688 C 111.3125 283.691406 117.644531 287.546875 124.554688 287.546875 Z M 124.554688 287.546875 " clip-rule="nonzero"/></clipPath><clipPath id="edd7be1282"><path d="M 133.207031 104.34375 L 236.027344 104.34375 L 236.027344 207.160156 L 133.207031 207.160156 Z M 133.207031 104.34375 " clip-rule="nonzero"/></clipPath><clipPath id="971832da8e"><path d="M 184.617188 104.34375 C 156.226562 104.34375 133.207031 127.359375 133.207031 155.75 C 133.207031 184.144531 156.226562 207.160156 184.617188 207.160156 C 213.007812 207.160156 236.027344 184.144531 236.027344 155.75 C 236.027344 127.359375 213.007812 104.34375 184.617188 104.34375 Z M 184.617188 104.34375 " clip-rule="nonzero"/></clipPath><clipPath id="113aec464b"><path d="M 133.207031 104.34375 L 235.957031 104.34375 L 235.957031 207.09375 L 133.207031 207.09375 Z M 133.207031 104.34375 " clip-rule="nonzero"/></clipPath><clipPath id="f32b3044ff"><path d="M 184.613281 104.34375 C 156.222656 104.34375 133.207031 127.359375 133.207031 155.746094 C 133.207031 184.136719 156.222656 207.152344 184.613281 207.152344 C 213.003906 207.152344 236.015625 184.136719 236.015625 155.746094 C 236.015625 127.359375 213.003906 104.34375 184.613281 104.34375 Z M 184.613281 104.34375 " clip-rule="nonzero"/></clipPath><clipPath id="1ad0ed07e9"><path d="M 148.667969 119.984375 L 219.917969 119.984375 L 219.917969 191.234375 L 148.667969 191.234375 Z M 148.667969 119.984375 " clip-rule="nonzero"/></clipPath><clipPath id="7441686c71"><path d="M 184.433594 119.984375 C 164.679688 119.984375 148.667969 136 148.667969 155.75 C 148.667969 175.503906 164.679688 191.515625 184.433594 191.515625 C 204.183594 191.515625 220.199219 175.503906 220.199219 155.75 C 220.199219 136 204.183594 119.984375 184.433594 119.984375 Z M 184.433594 119.984375 " clip-rule="nonzero"/></clipPath><clipPath id="53b1f4e322"><path d="M 156.554688 137.703125 L 212.054688 137.703125 L 212.054688 184.203125 L 156.554688 184.203125 Z M 156.554688 137.703125 " clip-rule="nonzero"/></clipPath><clipPath id="e4318822a7"><path d="M 229.421875 102.324219 L 247.082031 102.324219 L 247.082031 119.984375 L 229.421875 119.984375 Z M 229.421875 102.324219 " clip-rule="nonzero"/></clipPath><clipPath id="f0ab84edc2"><path d="M 238.25 102.324219 C 233.375 102.324219 229.421875 106.277344 229.421875 111.15625 C 229.421875 116.03125 233.375 119.984375 238.25 119.984375 C 243.128906 119.984375 247.082031 116.03125 247.082031 111.15625 C 247.082031 106.277344 243.128906 102.324219 238.25 102.324219 Z M 238.25 102.324219 " clip-rule="nonzero"/></clipPath></defs><g clip-path="url(#565e60731e)"><g clip-path="url(#7628fe6422)"><path fill="#0a57a2" d="M 235.617188 138.546875 L 285.933594 138.546875 L 285.933594 188.863281 L 235.617188 188.863281 Z M 235.617188 138.546875 " fill-opacity="1" fill-rule="nonzero"/></g></g><g clip-path="url(#bc6e8b3cc4)"><g clip-path="url(#d531701010)"><path fill="#0a57a2" d="M 238.25 162.238281 L 309.078125 162.238281 L 309.078125 233.066406 L 238.25 233.066406 Z M 238.25 162.238281 " fill-opacity="1" fill-rule="nonzero"/></g></g><g clip-path="url(#b7c71e5406)"><g clip-path="url(#c4c54556b7)"><path fill="#cfeeff" d="M 242.210938 145.140625 L 279.339844 145.140625 L 279.339844 182.269531 L 242.210938 182.269531 Z M 242.210938 145.140625 " fill-opacity="1" fill-rule="nonzero"/></g></g><g clip-path="url(#192a27e7e8)"><g clip-path="url(#4468c3a1c6)"><path fill="#cfeeff" d="M 244.992188 168.980469 L 302.335938 168.980469 L 302.335938 226.324219 L 244.992188 226.324219 Z M 244.992188 168.980469 " fill-opacity="1" fill-rule="nonzero"/></g></g><g clip-path="url(#41c64378c2)"><g clip-path="url(#4d73b2cdcd)"><path fill="#0a57a2" d="M 87.960938 129.15625 L 138.273438 129.15625 L 138.273438 179.472656 L 87.960938 179.472656 Z M 87.960938 129.15625 " fill-opacity="1" fill-rule="nonzero"/></g></g><g clip-path="url(#6b4eb0045a)"><g clip-path="url(#08365132fa)"><path fill="#0a57a2" d="M 67.449219 154.316406 L 138.273438 154.316406 L 138.273438 225.140625 L 67.449219 225.140625 Z M 67.449219 154.316406 " fill-opacity="1" fill-rule="nonzero"/></g></g><g clip-path="url(#862578f357)"><g clip-path="url(#b38365f2f6)"><path fill="#cfeeff" d="M 94.554688 135.75 L 131.683594 135.75 L 131.683594 172.878906 L 94.554688 172.878906 Z M 94.554688 135.75 " fill-opacity="1" fill-rule="nonzero"/></g></g><g clip-path="url(#b4ded04980)"><g clip-path="url(#e3934947a0)"><path fill="#cfeeff" d="M 74.191406 161.054688 L 131.535156 161.054688 L 131.535156 218.398438 L 74.191406 218.398438 Z M 74.191406 161.054688 " fill-opacity="1" fill-rule="nonzero"/></g></g><g clip-path="url(#28416cac50)"><g clip-path="url(#c8c3f6ef96)"><path fill="#1995ed" d="M 98.03125 87.453125 L 270.835938 87.453125 L 270.835938 264.980469 L 98.03125 264.980469 Z M 98.03125 87.453125 " fill-opacity="1" fill-rule="nonzero"/></g></g><g clip-path="url(#ff571ba09e)"><g clip-path="url(#08905b91db)"><path stroke-linecap="butt" transform="matrix(0.75, 0, 0, 0.75, 98.032572, 87.456256)" fill="none" stroke-linejoin="miter" d="M 67.591991 236.740633 L 162.800331 236.740633 C 177.269082 236.740633 189.664916 226.381257 192.227416 212.136464 L 225.961793 24.605202 C 227.060752 18.511452 225.399293 12.245826 221.425335 7.495826 C 217.456584 2.745826 211.581584 0.00103386 205.394084 0.00103386 L 24.998238 0.00103386 C 18.80553 0.00103386 12.935738 2.745826 8.961779 7.495826 C 4.993029 12.245826 3.33157 18.511452 4.42532 24.605202 L 38.164906 212.136464 C 40.727406 226.381257 53.118032 236.740633 67.591991 236.740633 Z M 67.591991 236.740633 " stroke="#0a57a2" stroke-width="20" stroke-opacity="1" stroke-miterlimit="4"/></g></g><g clip-path="url(#996b460ba2)"><g clip-path="url(#f213719997)"><path fill="#0a57a2" d="M 81.359375 225.78125 L 287.40625 225.78125 L 287.40625 287.546875 L 81.359375 287.546875 Z M 81.359375 225.78125 " fill-opacity="1" fill-rule="nonzero"/></g></g><g clip-path="url(#edd7be1282)"><g clip-path="url(#971832da8e)"><path fill="#ffffff" d="M 133.207031 104.34375 L 236.027344 104.34375 L 236.027344 207.160156 L 133.207031 207.160156 Z M 133.207031 104.34375 " fill-opacity="1" fill-rule="nonzero"/></g></g><g clip-path="url(#113aec464b)"><g clip-path="url(#f32b3044ff)"><path stroke-linecap="butt" transform="matrix(0.75, 0, 0, 0.75, 133.20842, 104.343092)" fill="none" stroke-linejoin="miter" d="M 68.53982 0.000877936 C 30.685651 0.000877936 -0.00185134 30.68838 -0.00185134 68.537341 C -0.00185134 106.39151 30.685651 137.079012 68.53982 137.079012 C 106.393989 137.079012 137.076283 106.39151 137.076283 68.537341 C 137.076283 30.68838 106.393989 0.000877936 68.53982 0.000877936 Z M 68.53982 0.000877936 " stroke="#0a57a2" stroke-width="20" stroke-opacity="1" stroke-miterlimit="4"/></g></g><path stroke-linecap="butt" transform="matrix(0.748584, -0.0460645, 0.0460645, 0.748584, 61.418009, 191.306618)" fill="none" stroke-linejoin="miter" d="M 15.583858 31.67584 C 14.603024 32.690431 13.533335 33.198607 12.390384 33.201329 C 11.231839 33.203092 10.207973 32.712197 9.323345 31.73936 C 8.443916 30.766843 8.0046 29.680518 8.005396 28.480385 C 8.005393 27.462838 8.360248 26.529747 9.059244 25.685668 C 11.050822 23.340019 13.187641 21.68689 15.46906 20.736678 C 17.755677 19.786785 20.310778 19.307396 23.149319 19.309867 C 26.295851 19.310418 28.998513 19.909837 31.262503 21.108445 C 33.521615 22.301534 35.516803 23.713201 37.247748 25.348644 C 39.151351 22.736672 41.302325 20.938305 43.690913 19.942505 C 46.080141 18.936309 48.521834 18.434287 51.011116 18.43092 C 52.915606 18.433314 54.707171 18.91405 56.380291 19.878007 C 58.069966 20.827328 59.441974 22.190211 60.501513 23.966975 C 61.577608 25.729104 62.10954 27.854329 62.112907 30.34361 C 62.111714 32.822175 61.521011 35.128791 60.341118 37.25826 C 59.172261 39.377972 57.622553 41.072447 55.681917 42.335848 C 53.756876 43.600209 51.687955 44.234752 49.470275 44.233958 C 47.920323 44.321218 46.491854 44.045461 45.18487 43.406689 C 43.873326 42.757201 42.691665 42.032213 41.629489 41.231088 L 34.850064 61.175271 C 35.963825 62.240481 37.028161 63.260903 38.042431 64.246936 C 39.062859 65.217693 40.156546 66.015539 41.324131 66.630078 C 42.502113 67.245258 43.850045 67.557803 45.363368 67.556999 C 47.753558 67.552754 49.976755 66.870304 52.033917 65.494055 C 54.101476 64.118446 55.861521 61.549823 57.324768 57.783625 C 57.72369 56.728009 58.309038 55.949992 59.074656 55.464849 C 59.855869 54.980667 60.664275 54.732976 61.509631 54.732814 C 62.527178 54.732811 63.45667 55.061353 64.303948 55.708364 C 65.146666 56.344658 65.569187 57.195131 65.566631 58.254266 C 65.565352 58.614242 65.495213 58.990853 65.355575 59.394497 C 63.364567 65.377256 60.498766 69.803347 56.757535 72.683167 C 53.011104 75.562667 48.878621 76.999064 44.359765 76.997558 C 41.249622 76.999246 38.571354 76.427419 36.309363 75.281116 C 34.058729 74.119858 32.0681 72.718908 30.337475 71.078267 C 28.430912 73.653529 26.125743 75.583299 23.421967 76.867576 C 20.717871 78.157051 17.855259 78.800154 14.83901 78.802402 C 12.188255 78.80105 9.719606 78.299522 7.438581 77.292939 C 5.156917 76.296753 3.32968 74.869331 1.951672 73.010351 C 0.579183 71.146493 -0.105186 68.954487 -0.106633 66.434015 C -0.108074 65.948635 -0.0871214 65.438542 -0.0440954 64.908935 C -0.000429533 64.368931 0.0861039 63.810691 0.215185 63.239416 C 0.845875 60.622169 1.972824 58.505097 3.606108 56.894037 C 5.250749 55.268022 7.166112 54.07612 9.352839 53.307936 C 11.550603 52.529994 13.735091 52.137381 15.910863 52.140813 C 17.857261 52.140568 19.676257 52.429919 21.362332 53.013746 C 23.049047 53.587175 24.555575 54.290408 25.871517 55.122804 L 33.192944 34.257045 C 31.589722 32.665988 29.925958 31.295589 28.196134 30.150724 C 26.472468 28.990584 24.483281 28.414196 22.224013 28.410844 C 21.033956 28.415886 19.87893 28.699647 18.763494 29.272845 C 17.663653 29.847002 16.602042 30.647894 15.583858 31.67584 Z M 50.069576 28.219698 C 49.22422 28.219861 48.391181 28.528654 47.57046 29.146078 C 46.760455 29.758944 46.043065 30.732345 45.428686 32.066921 C 45.818735 32.597087 46.344265 33.130372 46.999758 33.671654 C 47.671485 34.203498 48.495328 34.468139 49.471287 34.465577 C 50.400139 34.465335 51.205585 34.180935 51.887947 33.607178 C 52.581345 33.023665 52.923004 32.220215 52.9282 31.202989 C 52.928197 30.185443 52.671789 29.4339 52.164174 28.948682 C 51.656559 28.463463 50.95684 28.216896 50.069576 28.219698 Z M 14.576501 70.348443 C 16.126534 70.344679 17.637696 69.785396 19.121025 68.660837 C 20.61507 67.531718 21.890857 65.794296 22.954543 63.433294 C 21.980982 62.548912 20.981268 61.835121 19.96484 61.308156 C 18.948731 60.775993 17.84289 60.514871 16.637558 60.513755 C 15.134951 60.51 13.825091 60.935561 12.713814 61.780361 C 11.608055 62.620282 10.880988 63.666142 10.522535 64.912103 C 10.477909 65.128521 10.447918 65.361494 10.422166 65.610382 C 10.402572 65.843995 10.393376 66.078247 10.389698 66.307621 C 10.389781 67.408663 10.753918 68.359908 11.476912 69.161034 C 12.216141 69.952724 13.246085 70.344848 14.576501 70.348443 Z M 96.733705 54.541727 C 97.704465 54.538845 98.553021 54.82588 99.279373 55.402831 C 100.016442 55.975224 100.386018 56.838094 100.382582 57.996319 C 100.383783 58.570394 100.22919 59.301863 99.913924 60.185209 C 99.608734 61.074393 99.213412 62.156322 98.727955 63.430996 C 97.311974 67.022683 95.612233 69.798527 93.63393 71.758847 C 91.661784 73.703891 89.626056 75.071023 87.516987 75.849204 C 85.413756 76.617309 83.438487 77.001923 81.575585 77.002089 C 80.913136 76.997852 80.015715 76.911319 78.883321 76.742491 C 77.757085 76.558388 76.625171 76.212171 75.487578 75.703841 C 74.3659 75.191272 73.452561 74.430614 72.748202 73.411471 C 71.500725 74.519234 70.111049 75.393866 68.578853 76.040564 C 67.052175 76.682383 65.51414 76.999976 63.969626 76.998861 C 62.023227 76.999106 60.266453 76.546602 58.71002 75.636789 C 57.163983 74.727616 55.934414 73.509171 55.026192 71.986973 C 54.11893 70.449179 53.663456 68.777423 53.66497 66.972024 C 53.66177 66.345645 53.735906 65.734461 53.871785 65.137513 C 54.002466 64.540245 54.153301 63.954653 54.330128 63.370662 L 60.575794 45.486125 C 61.46417 42.921262 62.968531 41.030924 65.088555 39.820307 C 67.219617 38.599933 69.370754 37.986104 71.546526 37.989537 C 73.221643 37.988252 74.696498 38.18859 75.960694 38.589911 C 77.22585 38.975636 78.212287 39.396391 78.915765 39.836262 C 79.457526 39.003381 80.16388 38.378919 81.040666 37.9528 C 81.927529 37.532518 82.837986 37.322416 83.766838 37.322174 C 85.008879 37.320331 86.128157 37.702297 87.125312 38.457676 C 88.123106 39.202659 88.618646 40.308098 88.617451 41.769116 C 88.618092 42.437084 88.489492 43.170152 88.22709 43.957606 L 80.780901 65.494052 C 80.564645 66.294782 80.457078 66.940436 80.453321 67.425496 C 80.457643 68.542453 81.049794 69.095492 82.23953 69.095649 C 83.257077 69.095646 84.358118 68.75638 85.537775 68.072334 C 86.712554 67.38277 87.878774 66.238697 89.025399 64.649872 C 90.18306 63.05129 91.176767 60.89471 92.011079 58.190847 C 92.40848 56.905537 93.065808 55.975404 93.972664 55.399807 C 94.8844 54.829729 95.799655 54.54165 96.733705 54.541727 Z M 74.806111 53.875982 C 75.337953 52.186708 75.601153 50.877485 75.606109 49.948953 C 75.604346 48.790408 75.314028 47.911542 74.729635 47.317235 C 74.155638 46.723568 73.55821 46.425896 72.942548 46.424538 C 72.410061 46.428299 71.737136 46.679108 70.912736 47.186724 C 70.093214 47.699858 69.373185 48.970534 68.757529 51.004269 L 64.501356 64.372263 C 64.404185 64.679375 64.315491 65.018317 64.229437 65.399167 C 64.143703 65.774819 64.097637 66.184221 64.096439 66.627693 C 64.099323 68.276817 64.826236 69.099058 66.287574 69.095055 C 67.002328 69.097292 67.889591 68.755308 68.949043 68.074302 C 70.009135 67.382898 70.895675 65.950269 71.613861 63.776734 Z M 126.775043 57.251338 C 127.132457 56.276658 127.687335 55.569821 128.4296 55.124987 C 129.18746 54.681113 129.989068 54.459095 130.834424 54.458932 C 131.85197 54.458929 132.792819 54.772516 133.656972 55.399692 C 134.521764 56.016472 134.953722 56.883181 134.953165 57.99462 C 134.952686 58.172009 134.952846 58.339 134.953327 58.500794 C 134.954447 58.65219 134.91174 58.837417 134.825525 59.051275 C 133.807029 62.458695 132.137119 65.173756 129.810596 67.196139 C 127.484713 69.208125 124.703998 70.216322 121.468772 70.215532 C 117.878448 70.218981 115.110924 69.062443 113.16004 66.761193 L 110.69508 69.761294 C 109.235026 71.440414 107.945242 72.811702 106.830287 73.885875 C 105.726689 74.945093 104.608854 75.72687 103.471263 76.236087 C 102.349269 76.746263 100.992461 77.001953 99.40116 76.997958 C 96.823184 77.001085 94.683319 76.159734 92.975727 74.483983 C 91.273974 72.798154 90.426052 70.46563 90.426443 67.491288 C 90.42668 66.385047 90.554879 65.234499 90.81656 64.034764 L 95.666778 42.369883 C 96.02539 40.951731 96.723186 39.87276 97.760804 39.122574 C 98.809139 38.367829 99.928335 37.987935 101.118072 37.988091 C 102.276618 37.986329 103.322157 38.379412 104.250131 39.156625 C 105.183944 39.923761 105.648693 41.105579 105.650218 42.692001 C 105.645341 43.364847 105.557288 44.032574 105.370784 44.689025 L 100.326621 66.028881 C 100.149555 66.701568 100.063101 67.343303 100.066942 67.959285 C 100.063104 68.360849 100.170834 68.560551 100.389811 68.56359 C 100.703 68.561989 101.125118 68.316619 101.655843 67.832677 C 102.186888 67.343537 102.728251 66.77154 103.280249 66.111489 C 103.827689 65.440721 104.265082 64.862327 104.57683 64.375346 L 108.23008 58.854929 C 107.69599 57.527953 107.431422 56.061017 107.430858 54.459 C 107.435011 52.695509 107.709727 50.859958 108.259883 48.957865 C 108.821395 47.040817 109.625078 45.258689 110.661174 43.600444 C 111.702789 41.937321 112.918514 40.582349 114.312909 39.546244 C 115.707623 38.50494 117.252616 37.989484 118.938129 37.98884 C 120.754245 37.985795 122.131609 38.498443 123.060464 39.515747 C 123.989639 40.527852 124.455508 41.861066 124.453513 43.504672 C 124.456558 45.320788 123.921038 47.239436 122.847594 49.250218 C 121.789745 51.261961 120.348488 53.907602 118.534221 57.18778 C 118.315566 57.857907 118.20568 58.456455 118.20944 58.988941 C 118.207044 59.875885 118.483926 60.633906 119.035209 61.257484 C 119.586811 61.875864 120.418492 62.182733 121.53513 62.18361 C 122.766774 62.181127 123.805673 61.749329 124.651827 60.888215 C 125.493101 60.021582 126.204412 58.80777 126.775043 57.251338 Z M 166.125359 54.538087 C 167.100998 54.540724 167.949554 54.827758 168.676225 55.399511 C 169.408096 55.971584 169.777352 56.839652 169.779115 57.998198 C 169.775118 58.571953 169.620844 59.298223 169.305258 60.186768 C 169.005267 61.076272 168.609944 62.158201 168.124488 63.432874 C 166.703308 67.024242 165.003567 69.800086 163.025264 71.760406 C 161.058317 73.70577 159.01771 75.067383 156.908641 75.845565 C 154.810608 76.613989 152.830141 76.998284 150.967239 76.998449 C 150.309668 76.999731 149.412247 76.913198 148.274975 76.738852 C 147.148739 76.554748 146.016825 76.208531 144.88443 75.700521 C 143.757234 75.192831 142.843896 74.432173 142.139536 73.413029 C 140.897578 74.515915 139.507581 75.395745 137.970187 76.042123 C 136.443829 76.678743 134.910672 77.001855 133.36096 77.00042 C 131.414561 77.000665 129.663306 76.543282 128.101354 75.638348 C 126.555317 74.729175 125.330947 73.51105 124.417846 71.983333 C 123.510264 70.450738 123.05479 68.778982 123.056305 66.973583 C 123.058622 66.342325 123.12756 65.730821 123.268318 65.139392 C 123.398999 64.542124 123.550153 63.951334 123.721782 63.367022 L 129.967448 45.482485 C 130.855504 42.922821 132.359865 41.032483 134.479889 39.821866 C 136.610951 38.601492 138.767287 37.987983 140.93818 37.985897 C 142.618175 37.990131 144.087832 38.190149 145.352348 38.586271 C 146.617184 38.977194 147.603941 39.392752 148.307099 39.837821 C 148.84886 39.00494 149.555534 38.37528 150.432 37.954359 C 151.318863 37.534077 152.22932 37.323975 153.158172 37.323733 C 154.405412 37.32221 155.52501 37.698978 156.516646 38.459235 C 157.51444 39.204217 158.00998 40.309657 158.013983 41.770995 C 158.009426 42.438643 157.880826 43.171711 157.623622 43.959485 L 150.172235 65.495611 C 149.95598 66.296341 149.848732 66.936796 149.849853 67.427375 C 149.849297 68.538814 150.446326 69.097371 151.636063 69.097527 C 152.653609 69.097524 153.749452 68.757939 154.929109 68.073893 C 156.109087 67.384649 157.270109 66.240256 158.416733 64.651431 C 159.574714 63.04765 160.568101 60.896268 161.402413 58.192406 C 161.805333 56.902217 162.457462 55.971764 163.369197 55.401686 C 164.276054 54.826089 165.196507 54.53833 166.125359 54.538087 Z M 144.202964 53.872663 C 144.729287 52.188267 144.997686 50.879364 144.997443 49.950512 C 144.99568 48.791967 144.705362 47.913101 144.120969 47.318794 C 143.546973 46.725127 142.949544 46.427455 142.333882 46.426097 C 141.806914 46.424979 141.12847 46.680667 140.309268 47.188603 C 139.484868 47.696219 138.764839 48.966894 138.149183 51.000629 L 133.897888 64.374142 C 133.801037 64.676055 133.706825 65.019876 133.621091 65.395528 C 133.535037 65.776378 133.488971 66.18578 133.492972 66.629572 C 133.490977 68.273178 134.223088 69.095738 135.684106 69.096934 C 136.393662 69.098851 137.280925 68.756867 138.345575 68.076181 C 139.405667 67.384777 140.292527 65.946949 141.005515 63.773095 Z M 201.621676 54.671626 C 202.639222 54.671623 203.571274 54.958578 204.412633 55.53217 C 205.25919 56.106082 205.680031 56.899051 205.680034 57.916598 C 205.679234 58.099185 205.655402 58.316882 205.614055 58.564811 C 205.573347 58.802343 205.507287 59.027878 205.420752 59.246935 C 203.94767 63.596964 202.168673 67.067167 200.078244 69.662424 C 198.00405 72.248244 195.822285 74.122989 193.538468 75.281781 C 191.25561 76.424978 189.012819 77.001858 186.805536 77.001705 C 185.16193 76.99971 183.569669 76.672129 182.03459 76.008885 C 180.510228 75.341082 179.239392 74.454062 178.222082 73.347824 C 176.890311 74.638255 175.403542 75.564312 173.760818 76.141591 C 172.123612 76.71399 170.535191 77.002391 168.985479 77.000956 C 167.086187 76.998882 165.342449 76.588926 163.759783 75.766208 C 162.192713 74.944449 160.932993 73.791986 159.980624 72.308816 C 159.028254 70.825647 158.554546 69.111023 158.554301 67.164625 C 158.5511 66.538246 158.605722 65.904989 158.718168 65.264853 C 158.825095 64.629596 158.989206 63.997858 159.220897 63.370278 L 165.533104 45.422 C 166.418921 42.898725 167.890491 41.03246 169.942615 39.822883 C 172.011294 38.59867 174.125722 37.9878 176.291417 37.985395 C 179.578629 37.989384 182.262977 39.140804 184.338945 41.444533 L 190.393628 24.289227 C 191.011525 22.558284 191.772501 21.300565 192.682077 20.51119 C 193.587093 19.711099 194.550974 19.311211 195.56852 19.311208 C 196.727066 19.309446 197.794359 19.688213 198.765201 20.447191 C 199.742201 21.190894 200.228624 22.2749 200.225109 23.688812 C 200.229029 24.049108 200.155371 24.482903 200.014533 24.990836 C 199.884093 25.49941 199.757171 25.9508 199.628249 26.349885 L 186.073554 65.492308 C 185.849381 66.167314 185.732936 66.70284 185.734616 67.099525 C 185.733178 67.631692 185.913288 68.096757 186.269746 68.494401 C 186.625884 68.897244 187.135498 69.095585 187.798267 69.094624 C 189.300873 69.098378 190.89553 68.199833 192.581918 66.404186 C 194.273505 64.608859 195.865917 61.711611 197.368912 57.723478 C 197.684657 56.662743 198.248892 55.888645 199.056418 55.400863 C 199.879539 54.914041 200.734731 54.669229 201.621676 54.671626 Z M 170.450626 66.759108 C 170.893859 66.849001 171.445139 66.794215 172.104149 66.599949 C 172.773875 66.401124 173.481989 65.917662 174.229131 65.139164 C 174.98699 64.356108 175.70286 63.153013 176.372182 61.519163 L 179.096814 53.875201 C 179.399124 53.032803 179.606662 52.288937 179.713589 51.65368 C 179.831873 51.003468 179.893054 50.433232 179.891613 49.947852 C 179.895049 48.789626 179.599212 47.915639 179.014818 47.321333 C 178.441142 46.722467 177.848912 46.425115 177.23293 46.428955 C 176.700764 46.427517 176.036956 46.699761 175.235669 47.255763 C 174.434702 47.806566 173.705556 49.055807 173.043033 51.003167 L 169.249919 62.103655 C 169.162825 62.416605 169.073812 62.760746 168.987758 63.141596 C 168.901704 63.522446 168.855638 63.931848 168.859638 64.37564 C 168.85852 64.902608 168.964251 65.389187 169.18203 65.835698 C 169.410525 66.27765 169.829925 66.58524 170.450626 66.759108 Z M 223.164923 63.109689 C 223.292646 63.154075 223.447961 63.174069 223.620151 63.174229 C 223.802739 63.175028 223.959334 63.174228 224.089936 63.171828 C 226.036334 63.171582 227.751437 62.520485 229.235885 61.20814 C 230.725212 59.901313 231.824649 58.231311 232.529 56.197816 C 232.887453 54.951855 233.485358 54.054592 234.328233 53.501149 C 235.176307 52.948026 236.033419 52.672024 236.909966 52.673781 C 237.896321 52.671858 238.762472 53.012158 239.509378 53.679083 C 240.261803 54.34113 240.641856 55.288135 240.644339 56.51978 C 240.642261 57.062343 240.528216 57.728471 240.302204 58.518164 C 239.555226 60.820382 238.402605 62.930656 236.84466 64.843789 C 235.297752 66.747164 233.424937 68.265211 231.232053 69.387853 C 229.044047 70.516014 226.645621 71.078099 224.026057 71.078666 C 222.653733 71.077711 221.318278 70.901605 220.034967 70.556509 C 218.661371 72.950622 216.852378 74.618705 214.612547 75.571477 C 212.372716 76.524248 209.948217 77.001238 207.344568 76.997566 C 205.079782 76.999092 202.988384 76.557306 201.059978 75.671567 C 199.137091 74.78095 197.572179 73.500124 196.37076 71.824211 C 195.169982 70.137901 194.572869 68.13912 194.573902 65.832745 C 194.5735 65.076084 194.641958 64.302787 194.784474 63.513174 C 194.912035 62.712205 195.134768 61.891001 195.447476 61.049243 L 200.297876 47.352542 C 201.004867 45.360955 202.08479 43.66888 203.543165 42.271439 C 205.006739 40.874318 206.68961 39.814219 208.591779 39.091142 C 210.505305 38.35311 212.505606 37.98569 214.582287 37.988243 C 216.972157 37.989196 219.130176 38.450737 221.055703 39.383262 C 222.991947 40.311229 224.523109 41.631723 225.649189 43.344745 C 226.781427 45.042492 227.353507 47.024079 227.350155 49.283347 C 227.352957 50.170611 227.173732 51.302365 226.817998 52.67373 C 226.461945 54.050294 226.036312 55.370394 225.551495 56.63467 C 225.06212 57.88823 224.619211 58.810685 224.218208 59.391319 C 223.775698 60.052889 223.333667 60.537071 222.891475 60.85426 C 223.031117 61.468163 223.112535 62.010646 223.130851 62.476192 C 223.154365 62.942057 223.167562 63.151596 223.164923 63.109689 Z M 216.980278 52.866743 C 217.200852 52.165424 217.391195 51.446591 217.566902 50.711203 C 217.747808 49.976135 217.840419 49.319124 217.844417 48.745369 C 217.843375 47.999105 217.529863 47.32754 216.903562 46.735872 C 216.28342 46.128929 215.467014 45.828218 214.449468 45.828221 C 213.431922 45.828224 212.411417 46.1307 211.382756 46.735328 C 210.365131 47.330199 209.665815 48.179476 209.274411 49.282519 L 204.551813 62.767921 C 204.412414 63.082871 204.275415 63.528422 204.145374 64.115293 C 204.016293 64.686569 203.953513 65.282797 203.952155 65.898459 C 203.949678 66.701907 204.170657 67.435615 204.614771 68.104781 C 205.059204 68.768748 205.925995 69.09865 207.215143 69.094488 C 208.232369 69.099683 209.184334 68.808644 210.070077 68.236967 C 210.956459 67.654892 211.620345 66.78778 212.066613 65.64115 C 211.437113 65.101468 210.879992 64.487966 210.39493 63.805845 C 209.905309 63.113006 209.642263 62.214946 209.600591 61.111345 C 209.598988 59.780609 209.917213 58.59479 210.554946 57.559087 C 211.203396 56.518825 212.060986 55.726252 213.117639 55.175527 C 214.180451 54.609528 215.310204 54.397266 216.512098 54.539061 C 216.554725 54.270339 216.618146 54.002896 216.706919 53.747449 C 216.791454 53.476087 216.882467 53.184251 216.980278 52.866743 Z M 263.441843 57.719128 C 263.749512 56.70486 264.279037 55.986026 265.035617 55.562945 C 265.792198 55.139865 266.587967 54.927924 267.422607 54.932321 C 268.492458 54.930318 269.481053 55.231188 270.388073 55.84013 C 271.301252 56.433796 271.752644 57.239082 271.752647 58.256629 C 271.754247 58.569818 271.680509 58.920117 271.54151 59.313364 C 269.592729 64.949103 267.059873 69.306973 263.932224 72.391532 C 260.815613 75.466334 257.438912 77.00142 253.807 77.002311 C 251.986005 76.999837 250.298811 76.603796 248.740219 75.813868 C 247.192663 75.014184 245.967413 73.89515 245.059271 72.456448 C 244.14657 71.007029 243.696615 69.330394 243.693811 67.425584 C 243.692207 66.094848 243.962125 64.676456 244.487649 63.174648 L 247.429177 55.058742 C 247.558338 54.570962 247.624238 54.178435 247.621998 53.875643 C 247.621596 53.118981 247.391021 52.541229 246.925394 52.136867 C 246.459447 51.737703 245.889291 51.420836 245.220443 51.181387 C 244.562632 50.932181 243.923376 50.720644 243.307873 50.547096 L 239.5741 60.51367 C 239.174858 61.574485 238.541123 62.375616 237.673215 62.911864 C 236.821223 63.443873 235.928361 63.707239 234.994311 63.707162 C 234.065459 63.707405 233.231858 63.431727 232.498708 62.880448 C 231.761 62.318452 231.394703 61.487093 231.39494 60.380852 C 231.396138 59.93738 231.462597 59.45096 231.604715 58.922233 L 236.454717 45.825598 C 235.344234 44.452718 234.783591 42.878853 234.783186 41.104646 C 234.78558 39.200155 235.337896 37.517359 236.440133 36.056258 C 237.552768 34.595796 239.084884 33.865602 241.031282 33.865357 C 242.549804 33.864872 243.877502 34.421428 245.024774 35.535663 C 246.183083 36.640141 246.764279 37.964797 246.762844 39.51451 C 246.761486 40.130172 246.670074 40.682893 246.48373 41.167154 C 247.416741 41.438513 248.535379 41.830876 249.845163 42.339366 C 251.154946 42.847855 252.445376 43.501263 253.72165 44.299909 C 255.008961 45.088797 256.076815 46.052036 256.920015 47.189305 C 257.763855 48.316178 258.186217 49.678024 258.186781 51.280041 C 258.187983 51.854116 258.131041 52.440267 258.025713 53.049531 C 257.916146 53.64288 257.747157 54.2691 257.518745 54.92819 L 253.59159 65.832575 C 253.42052 66.322994 253.333267 66.808134 253.334708 67.293514 C 253.33351 67.736986 253.454116 68.151426 253.691649 68.531316 C 253.939898 68.906647 254.288358 69.095071 254.73183 69.09627 C 256.146062 69.094586 257.642747 68.007375 259.206289 65.833678 C 260.790626 63.661261 262.199011 60.956197 263.441843 57.719128 Z M 302.852141 54.539931 C 303.827779 54.542568 304.676335 54.829602 305.397808 55.401035 C 306.134877 55.973428 306.504133 56.841497 306.501018 57.994524 C 306.502219 58.568598 306.347626 59.300067 306.032039 60.188612 C 305.732368 61.072918 305.337046 62.154847 304.846071 63.434399 C 303.43009 67.026086 301.730349 69.80193 299.752365 71.757052 C 297.785098 73.707614 295.744491 75.069227 293.635422 75.847409 C 291.53739 76.615833 289.556923 77.000128 287.69402 77.000293 C 287.03645 77.001575 286.139029 76.915042 285.001756 76.740696 C 283.875521 76.556592 282.743607 76.210376 281.611212 75.702365 C 280.484016 75.194675 279.570997 74.428819 278.866317 73.414873 C 277.624359 74.517759 276.234683 75.39239 274.696968 76.043967 C 273.170611 76.680587 271.632575 76.99818 270.087741 77.002264 C 268.141343 77.002509 266.390087 76.545126 264.828455 75.634993 C 263.282419 74.72582 262.05253 73.512574 261.144628 71.985177 C 260.237365 70.447384 259.781892 68.775628 259.783406 66.970229 C 259.780205 66.343849 259.854342 65.732666 259.995419 65.136037 C 260.12578 64.543968 260.276935 63.953178 260.448564 63.368866 L 266.694229 45.484329 C 267.582606 42.919467 269.086646 41.034327 271.206671 39.82371 C 273.338052 38.598137 275.48887 37.989507 277.664962 37.987741 C 279.345277 37.986776 280.814933 38.186794 282.079129 38.588115 C 283.343966 38.979039 284.330722 39.394596 285.03388 39.839665 C 285.575642 39.006784 286.282316 38.377124 287.158782 37.956203 C 288.045645 37.535921 288.956421 37.320621 289.885273 37.320378 C 291.132193 37.324054 292.251791 37.700822 293.243747 38.455881 C 294.241221 39.206061 294.737081 40.306303 294.735886 41.767321 C 294.736208 42.440487 294.607927 43.168357 294.350404 43.961329 L 286.899336 65.492257 C 286.683081 66.292986 286.575514 66.93864 286.576955 67.42402 C 286.576078 68.540658 287.167909 69.098895 288.357646 69.099052 C 289.375192 69.099049 290.476553 68.754585 291.655891 68.075737 C 292.836188 67.381294 293.99689 66.2421 295.143834 64.648076 C 296.301496 63.049494 297.294883 60.898112 298.129194 58.19425 C 298.532114 56.904062 299.184243 55.973608 300.0911 55.398012 C 301.002835 54.827934 301.923289 54.540174 302.852141 54.539931 Z M 280.929745 53.874507 C 281.456389 52.184913 281.724787 50.87601 281.724545 49.947158 C 281.722782 48.788612 281.432143 47.914945 280.84775 47.320638 C 280.274074 46.721773 279.676645 46.424101 279.060663 46.427941 C 278.533695 46.426823 277.855252 46.682511 277.030851 47.190127 C 276.211649 47.698063 275.491621 48.968738 274.875964 51.002473 L 270.62467 64.375986 C 270.527819 64.677899 270.433927 65.016522 270.347873 65.397372 C 270.261819 65.778222 270.215753 66.187624 270.219753 66.631416 C 270.217758 68.275022 270.94987 69.097582 272.405689 69.098458 C 273.120763 69.095497 274.008026 68.753513 275.067478 68.072506 C 276.12757 67.381103 277.019309 65.948793 277.732297 63.774939 Z M 331.369041 58.194154 C 331.726455 57.219475 332.270296 56.522394 332.995686 56.097395 C 333.731152 55.678234 334.495731 55.464373 335.299179 55.46685 C 336.358634 55.464208 337.341071 55.780354 338.25233 56.405211 C 339.15871 57.024549 339.61594 57.819758 339.613624 58.790198 C 339.616023 58.920801 339.612265 59.066679 339.612745 59.228472 C 339.613865 59.379868 339.568519 59.523187 339.482224 59.65355 C 337.928366 64.129063 335.795311 67.671406 333.08922 70.265306 C 330.399364 72.849768 327.316339 74.700362 323.856061 75.812851 C 320.406499 76.920782 316.751396 77.468154 312.884592 77.470245 C 308.991795 77.470736 305.683308 76.964492 302.954253 75.945993 C 300.231036 74.917418 298.155951 73.532144 296.739395 71.79081 C 295.323478 70.03908 294.614637 68.075169 294.612871 65.899077 C 294.616386 64.485165 294.856393 63.04406 295.342968 61.581601 C 295.829224 60.12434 296.571646 58.828952 297.569594 57.705833 C 298.563304 56.566799 299.788389 55.82293 301.250685 55.464149 C 302.582294 52.98918 303.932057 50.473582 305.310372 47.917995 C 306.683168 45.367287 308.013417 42.829616 309.300798 40.310179 C 309.917497 39.022709 310.816834 38.060504 311.993933 37.418046 C 313.171351 36.77039 314.380921 36.448239 315.612566 36.445756 C 317.303278 36.445431 318.640733 37.013024 319.63533 38.149173 C 320.630566 39.274925 321.131465 40.547677 321.133148 41.961908 C 321.129872 42.947944 320.804289 43.914146 320.155759 44.870912 C 319.517946 45.823119 318.735613 46.495087 317.802924 46.896894 C 317.943926 47.91268 318.301026 48.978292 318.874224 50.093728 C 319.448061 51.198768 320.067726 52.322282 320.743294 53.470108 C 321.671031 55.01438 322.554381 56.686375 323.388145 58.485773 C 324.227428 60.280293 324.649632 62.153511 324.649878 64.099909 C 324.653878 64.543701 324.627966 64.96478 324.587739 65.364105 C 324.542313 65.76311 324.479693 66.187147 324.3898 66.63038 C 325.941909 65.744871 327.285518 64.601277 328.430704 63.205437 C 329.591485 61.810556 330.571037 60.138395 331.369041 58.194154 Z M 310.304555 56.391775 C 310.879831 56.964648 311.298912 57.616619 311.55628 58.352566 C 311.824045 59.089152 311.961207 59.828139 311.961929 60.579602 C 311.959934 62.223208 311.424333 63.719177 310.354806 65.07271 C 309.295675 66.426882 307.793071 67.101492 305.841474 67.101418 C 305.627696 67.098699 305.383047 67.088862 305.113044 67.06703 C 304.843042 67.045197 304.578878 67.013287 304.320553 66.971299 C 304.676452 67.802019 305.319389 68.462546 306.249362 68.952882 C 307.179655 69.438019 308.197762 69.683306 309.298804 69.683222 C 311.073252 69.594123 312.383592 68.991173 313.225266 67.863656 C 314.072778 66.726062 314.494492 65.384848 314.495607 63.840334 C 314.491844 62.290301 314.147939 60.755865 313.453815 59.231187 C 312.771047 57.691553 311.91593 56.32395 310.888783 55.12318 Z M 310.304555 56.391775 " stroke="#0a57a2" stroke-width="17.4489" stroke-opacity="1" stroke-miterlimit="4"/><g fill="#ffffff" fill-opacity="1"><g transform="translate(65.47963, 248.915915)"><g><path d="M 9.0625 -34.625 C 8.382812 -33.820312 7.613281 -33.394531 6.75 -33.34375 C 5.882812 -33.28125 5.09375 -33.59375 4.375 -34.28125 C 3.664062 -34.976562 3.285156 -35.773438 3.234375 -36.671875 C 3.179688 -37.429688 3.40625 -38.140625 3.90625 -38.796875 C 5.289062 -40.660156 6.8125 -42 8.46875 -42.8125 C 10.132812 -43.632812 12.035156 -44.109375 14.171875 -44.234375 C 16.523438 -44.378906 18.578125 -44.050781 20.328125 -43.25 C 22.078125 -42.457031 23.632812 -41.488281 25 -40.34375 C 26.289062 -42.394531 27.8125 -43.847656 29.5625 -44.703125 C 31.3125 -45.554688 33.113281 -46.039062 34.96875 -46.15625 C 36.394531 -46.25 37.757812 -45.976562 39.0625 -45.34375 C 40.375 -44.707031 41.460938 -43.75 42.328125 -42.46875 C 43.203125 -41.1875 43.695312 -39.617188 43.8125 -37.765625 C 43.925781 -35.898438 43.59375 -34.144531 42.8125 -32.5 C 42.039062 -30.863281 40.960938 -29.523438 39.578125 -28.484375 C 38.191406 -27.453125 36.671875 -26.882812 35.015625 -26.78125 C 33.867188 -26.644531 32.785156 -26.785156 31.765625 -27.203125 C 30.753906 -27.617188 29.835938 -28.109375 29.015625 -28.671875 L 24.84375 -13.421875 C 25.726562 -12.679688 26.570312 -11.96875 27.375 -11.28125 C 28.1875 -10.59375 29.046875 -10.039062 29.953125 -9.625 C 30.859375 -9.21875 31.875 -9.050781 33 -9.125 C 34.800781 -9.226562 36.4375 -9.84375 37.90625 -10.96875 C 39.382812 -12.09375 40.585938 -14.097656 41.515625 -16.984375 C 41.765625 -17.804688 42.164062 -18.414062 42.71875 -18.8125 C 43.28125 -19.21875 43.875 -19.4375 44.5 -19.46875 C 45.257812 -19.519531 45.96875 -19.320312 46.625 -18.875 C 47.289062 -18.425781 47.648438 -17.804688 47.703125 -17.015625 C 47.710938 -16.742188 47.679688 -16.460938 47.609375 -16.171875 C 46.390625 -11.597656 44.441406 -8.144531 41.765625 -5.8125 C 39.097656 -3.488281 36.070312 -2.222656 32.6875 -2.015625 C 30.363281 -1.867188 28.332031 -2.175781 26.59375 -2.9375 C 24.851562 -3.695312 23.296875 -4.644531 21.921875 -5.78125 C 20.617188 -3.78125 18.984375 -2.234375 17.015625 -1.140625 C 15.046875 -0.0546875 12.9375 0.550781 10.6875 0.6875 C 8.6875 0.8125 6.8125 0.554688 5.0625 -0.078125 C 3.3125 -0.722656 1.878906 -1.707031 0.765625 -3.03125 C -0.347656 -4.363281 -0.960938 -5.976562 -1.078125 -7.875 C -1.097656 -8.238281 -1.101562 -8.617188 -1.09375 -9.015625 C -1.09375 -9.421875 -1.054688 -9.847656 -0.984375 -10.296875 C -0.640625 -12.265625 0.109375 -13.894531 1.265625 -15.1875 C 2.421875 -16.476562 3.800781 -17.460938 5.40625 -18.140625 C 7.007812 -18.816406 8.628906 -19.207031 10.265625 -19.3125 C 11.710938 -19.394531 13.082031 -19.257812 14.375 -18.90625 C 15.664062 -18.550781 16.828125 -18.09375 17.859375 -17.53125 L 22.359375 -33.5 C 21.097656 -34.625 19.796875 -35.578125 18.453125 -36.359375 C 17.109375 -37.148438 15.585938 -37.492188 13.890625 -37.390625 C 12.992188 -37.328125 12.144531 -37.050781 11.34375 -36.5625 C 10.539062 -36.082031 9.78125 -35.4375 9.0625 -34.625 Z M 34.734375 -38.8125 C 34.097656 -38.769531 33.488281 -38.5 32.90625 -38 C 32.320312 -37.5 31.832031 -36.734375 31.4375 -35.703125 C 31.75 -35.328125 32.164062 -34.953125 32.6875 -34.578125 C 33.21875 -34.210938 33.847656 -34.050781 34.578125 -34.09375 C 35.265625 -34.132812 35.847656 -34.382812 36.328125 -34.84375 C 36.816406 -35.3125 37.039062 -35.929688 37 -36.703125 C 36.945312 -37.460938 36.71875 -38.015625 36.3125 -38.359375 C 35.914062 -38.703125 35.390625 -38.851562 34.734375 -38.8125 Z M 10.09375 -5.609375 C 11.257812 -5.679688 12.367188 -6.175781 13.421875 -7.09375 C 14.472656 -8.007812 15.347656 -9.375 16.046875 -11.1875 C 15.273438 -11.800781 14.492188 -12.28125 13.703125 -12.625 C 12.910156 -12.976562 12.070312 -13.128906 11.1875 -13.078125 C 10.050781 -13.003906 9.085938 -12.628906 8.296875 -11.953125 C 7.515625 -11.273438 7.015625 -10.460938 6.796875 -9.515625 C 6.773438 -9.347656 6.757812 -9.171875 6.75 -8.984375 C 6.75 -8.804688 6.753906 -8.632812 6.765625 -8.46875 C 6.816406 -7.632812 7.132812 -6.929688 7.71875 -6.359375 C 8.300781 -5.796875 9.09375 -5.546875 10.09375 -5.609375 Z M 10.09375 -5.609375 "/></g></g></g><g fill="#ffffff" fill-opacity="1"><g transform="translate(106.181199, 246.411321)"><g><path d="M 30.171875 -18.75 C 30.898438 -18.789062 31.550781 -18.613281 32.125 -18.21875 C 32.695312 -17.820312 33.007812 -17.191406 33.0625 -16.328125 C 33.09375 -15.890625 33.007812 -15.332031 32.8125 -14.65625 C 32.625 -13.988281 32.375 -13.160156 32.0625 -12.171875 C 31.164062 -9.398438 30.023438 -7.242188 28.640625 -5.703125 C 27.253906 -4.160156 25.789062 -3.046875 24.25 -2.359375 C 22.707031 -1.679688 21.242188 -1.300781 19.859375 -1.21875 C 19.359375 -1.1875 18.679688 -1.210938 17.828125 -1.296875 C 16.972656 -1.378906 16.109375 -1.582031 15.234375 -1.90625 C 14.367188 -2.238281 13.644531 -2.769531 13.0625 -3.5 C 12.1875 -2.625 11.191406 -1.90625 10.078125 -1.34375 C 8.960938 -0.789062 7.828125 -0.476562 6.671875 -0.40625 C 5.203125 -0.320312 3.867188 -0.582031 2.671875 -1.1875 C 1.472656 -1.800781 0.5 -2.65625 -0.25 -3.75 C -1.007812 -4.851562 -1.429688 -6.085938 -1.515625 -7.453125 C -1.535156 -7.921875 -1.507812 -8.378906 -1.4375 -8.828125 C -1.375 -9.285156 -1.285156 -9.734375 -1.171875 -10.171875 L 2.671875 -23.84375 C 3.222656 -25.8125 4.265625 -27.296875 5.796875 -28.296875 C 7.335938 -29.304688 8.921875 -29.863281 10.546875 -29.96875 C 11.804688 -30.039062 12.914062 -29.957031 13.875 -29.71875 C 14.84375 -29.488281 15.601562 -29.222656 16.15625 -28.921875 C 16.519531 -29.578125 17.019531 -30.082031 17.65625 -30.4375 C 18.300781 -30.789062 18.972656 -30.988281 19.671875 -31.03125 C 20.597656 -31.082031 21.453125 -30.851562 22.234375 -30.34375 C 23.015625 -29.832031 23.4375 -29.023438 23.5 -27.921875 C 23.53125 -27.421875 23.46875 -26.867188 23.3125 -26.265625 L 18.734375 -9.796875 C 18.609375 -9.191406 18.554688 -8.707031 18.578125 -8.34375 C 18.628906 -7.507812 19.101562 -7.117188 20 -7.171875 C 20.757812 -7.222656 21.5625 -7.53125 22.40625 -8.09375 C 23.257812 -8.664062 24.082031 -9.570312 24.875 -10.8125 C 25.664062 -12.0625 26.3125 -13.71875 26.8125 -15.78125 C 27.050781 -16.769531 27.492188 -17.5 28.140625 -17.96875 C 28.796875 -18.445312 29.472656 -18.707031 30.171875 -18.75 Z M 13.71875 -18.21875 C 14.03125 -19.519531 14.164062 -20.519531 14.125 -21.21875 C 14.070312 -22.070312 13.816406 -22.707031 13.359375 -23.125 C 12.898438 -23.539062 12.4375 -23.738281 11.96875 -23.71875 C 11.570312 -23.6875 11.078125 -23.457031 10.484375 -23.03125 C 9.898438 -22.613281 9.421875 -21.632812 9.046875 -20.09375 L 6.484375 -9.890625 C 6.429688 -9.648438 6.378906 -9.390625 6.328125 -9.109375 C 6.273438 -8.828125 6.257812 -8.519531 6.28125 -8.1875 C 6.363281 -6.957031 6.953125 -6.375 8.046875 -6.4375 C 8.578125 -6.46875 9.226562 -6.765625 10 -7.328125 C 10.769531 -7.898438 11.363281 -9.015625 11.78125 -10.671875 Z M 13.71875 -18.21875 "/></g></g></g><g fill="#ffffff" fill-opacity="1"><g transform="translate(132.303839, 244.803849)"><g><path d="M 26.671875 -16.484375 C 26.878906 -17.222656 27.253906 -17.773438 27.796875 -18.140625 C 28.347656 -18.515625 28.9375 -18.71875 29.5625 -18.75 C 30.332031 -18.800781 31.050781 -18.613281 31.71875 -18.1875 C 32.394531 -17.757812 32.757812 -17.132812 32.8125 -16.3125 C 32.820312 -16.175781 32.828125 -16.050781 32.828125 -15.9375 C 32.835938 -15.820312 32.816406 -15.675781 32.765625 -15.5 C 32.160156 -12.90625 31.03125 -10.796875 29.375 -9.171875 C 27.726562 -7.546875 25.695312 -6.660156 23.28125 -6.515625 C 20.59375 -6.347656 18.46875 -7.082031 16.90625 -8.71875 L 15.203125 -6.375 C 14.171875 -5.0625 13.269531 -3.976562 12.5 -3.125 C 11.726562 -2.269531 10.925781 -1.625 10.09375 -1.1875 C 9.269531 -0.757812 8.257812 -0.507812 7.0625 -0.4375 C 5.132812 -0.3125 3.492188 -0.84375 2.140625 -2.03125 C 0.785156 -3.21875 0.0390625 -4.914062 -0.09375 -7.125 C -0.144531 -7.957031 -0.0976562 -8.832031 0.046875 -9.75 L 2.671875 -26.203125 C 2.878906 -27.273438 3.351562 -28.113281 4.09375 -28.71875 C 4.84375 -29.332031 5.664062 -29.664062 6.5625 -29.71875 C 7.425781 -29.769531 8.222656 -29.523438 8.953125 -28.984375 C 9.691406 -28.453125 10.097656 -27.59375 10.171875 -26.40625 C 10.203125 -25.90625 10.164062 -25.398438 10.0625 -24.890625 L 7.265625 -8.703125 C 7.160156 -8.191406 7.117188 -7.703125 7.140625 -7.234375 C 7.160156 -6.929688 7.253906 -6.785156 7.421875 -6.796875 C 7.648438 -6.804688 7.953125 -7.003906 8.328125 -7.390625 C 8.710938 -7.785156 9.097656 -8.242188 9.484375 -8.765625 C 9.867188 -9.296875 10.164062 -9.75 10.375 -10.125 L 12.859375 -14.421875 C 12.390625 -15.398438 12.117188 -16.488281 12.046875 -17.6875 C 11.960938 -19.007812 12.082031 -20.394531 12.40625 -21.84375 C 12.738281 -23.289062 13.253906 -24.660156 13.953125 -25.953125 C 14.660156 -27.253906 15.515625 -28.320312 16.515625 -29.15625 C 17.515625 -30 18.640625 -30.457031 19.890625 -30.53125 C 21.253906 -30.613281 22.304688 -30.296875 23.046875 -29.578125 C 23.796875 -28.867188 24.207031 -27.898438 24.28125 -26.671875 C 24.363281 -25.304688 24.050781 -23.84375 23.34375 -22.28125 C 22.644531 -20.726562 21.691406 -18.679688 20.484375 -16.140625 C 20.347656 -15.628906 20.289062 -15.175781 20.3125 -14.78125 C 20.351562 -14.113281 20.59375 -13.5625 21.03125 -13.125 C 21.476562 -12.695312 22.117188 -12.507812 22.953125 -12.5625 C 23.878906 -12.625 24.640625 -12.992188 25.234375 -13.671875 C 25.828125 -14.347656 26.304688 -15.285156 26.671875 -16.484375 Z M 26.671875 -16.484375 "/></g></g></g><g fill="#ffffff" fill-opacity="1"><g transform="translate(158.127942, 243.214749)"><g><path d="M 30.171875 -18.75 C 30.898438 -18.789062 31.550781 -18.613281 32.125 -18.21875 C 32.695312 -17.820312 33.007812 -17.191406 33.0625 -16.328125 C 33.09375 -15.890625 33.007812 -15.332031 32.8125 -14.65625 C 32.625 -13.988281 32.375 -13.160156 32.0625 -12.171875 C 31.164062 -9.398438 30.023438 -7.242188 28.640625 -5.703125 C 27.253906 -4.160156 25.789062 -3.046875 24.25 -2.359375 C 22.707031 -1.679688 21.242188 -1.300781 19.859375 -1.21875 C 19.359375 -1.1875 18.679688 -1.210938 17.828125 -1.296875 C 16.972656 -1.378906 16.109375 -1.582031 15.234375 -1.90625 C 14.367188 -2.238281 13.644531 -2.769531 13.0625 -3.5 C 12.1875 -2.625 11.191406 -1.90625 10.078125 -1.34375 C 8.960938 -0.789062 7.828125 -0.476562 6.671875 -0.40625 C 5.203125 -0.320312 3.867188 -0.582031 2.671875 -1.1875 C 1.472656 -1.800781 0.5 -2.65625 -0.25 -3.75 C -1.007812 -4.851562 -1.429688 -6.085938 -1.515625 -7.453125 C -1.535156 -7.921875 -1.507812 -8.378906 -1.4375 -8.828125 C -1.375 -9.285156 -1.285156 -9.734375 -1.171875 -10.171875 L 2.671875 -23.84375 C 3.222656 -25.8125 4.265625 -27.296875 5.796875 -28.296875 C 7.335938 -29.304688 8.921875 -29.863281 10.546875 -29.96875 C 11.804688 -30.039062 12.914062 -29.957031 13.875 -29.71875 C 14.84375 -29.488281 15.601562 -29.222656 16.15625 -28.921875 C 16.519531 -29.578125 17.019531 -30.082031 17.65625 -30.4375 C 18.300781 -30.789062 18.972656 -30.988281 19.671875 -31.03125 C 20.597656 -31.082031 21.453125 -30.851562 22.234375 -30.34375 C 23.015625 -29.832031 23.4375 -29.023438 23.5 -27.921875 C 23.53125 -27.421875 23.46875 -26.867188 23.3125 -26.265625 L 18.734375 -9.796875 C 18.609375 -9.191406 18.554688 -8.707031 18.578125 -8.34375 C 18.628906 -7.507812 19.101562 -7.117188 20 -7.171875 C 20.757812 -7.222656 21.5625 -7.53125 22.40625 -8.09375 C 23.257812 -8.664062 24.082031 -9.570312 24.875 -10.8125 C 25.664062 -12.0625 26.3125 -13.71875 26.8125 -15.78125 C 27.050781 -16.769531 27.492188 -17.5 28.140625 -17.96875 C 28.796875 -18.445312 29.472656 -18.707031 30.171875 -18.75 Z M 13.71875 -18.21875 C 14.03125 -19.519531 14.164062 -20.519531 14.125 -21.21875 C 14.070312 -22.070312 13.816406 -22.707031 13.359375 -23.125 C 12.898438 -23.539062 12.4375 -23.738281 11.96875 -23.71875 C 11.570312 -23.6875 11.078125 -23.457031 10.484375 -23.03125 C 9.898438 -22.613281 9.421875 -21.632812 9.046875 -20.09375 L 6.484375 -9.890625 C 6.429688 -9.648438 6.378906 -9.390625 6.328125 -9.109375 C 6.273438 -8.828125 6.257812 -8.519531 6.28125 -8.1875 C 6.363281 -6.957031 6.953125 -6.375 8.046875 -6.4375 C 8.578125 -6.46875 9.226562 -6.765625 10 -7.328125 C 10.769531 -7.898438 11.363281 -9.015625 11.78125 -10.671875 Z M 13.71875 -18.21875 "/></g></g></g><g fill="#ffffff" fill-opacity="1"><g transform="translate(184.250582, 241.607278)"><g><path d="M 30.609375 -18.671875 C 31.378906 -18.710938 32.09375 -18.535156 32.75 -18.140625 C 33.40625 -17.753906 33.757812 -17.179688 33.8125 -16.421875 C 33.820312 -16.285156 33.816406 -16.125 33.796875 -15.9375 C 33.773438 -15.75 33.734375 -15.570312 33.671875 -15.40625 C 32.773438 -12.082031 31.609375 -9.40625 30.171875 -7.375 C 28.734375 -5.34375 27.179688 -3.84375 25.515625 -2.875 C 23.859375 -1.90625 22.207031 -1.367188 20.5625 -1.265625 C 19.332031 -1.191406 18.128906 -1.367188 16.953125 -1.796875 C 15.773438 -2.222656 14.773438 -2.832031 13.953125 -3.625 C 13.023438 -2.59375 11.957031 -1.820312 10.75 -1.3125 C 9.550781 -0.800781 8.375 -0.507812 7.21875 -0.4375 C 5.78125 -0.351562 4.457031 -0.582031 3.25 -1.125 C 2.039062 -1.664062 1.046875 -2.46875 0.265625 -3.53125 C -0.515625 -4.601562 -0.953125 -5.867188 -1.046875 -7.328125 C -1.078125 -7.796875 -1.0625 -8.269531 -1 -8.75 C -0.945312 -9.238281 -0.851562 -9.722656 -0.71875 -10.203125 L 3.171875 -23.921875 C 3.722656 -25.859375 4.738281 -27.328125 6.21875 -28.328125 C 7.707031 -29.328125 9.265625 -29.878906 10.890625 -29.984375 C 13.347656 -30.128906 15.410156 -29.394531 17.078125 -27.78125 L 20.8125 -40.890625 C 21.195312 -42.210938 21.710938 -43.191406 22.359375 -43.828125 C 23.003906 -44.472656 23.707031 -44.820312 24.46875 -44.875 C 25.332031 -44.925781 26.144531 -44.6875 26.90625 -44.15625 C 27.664062 -43.632812 28.078125 -42.84375 28.140625 -41.78125 C 28.148438 -41.519531 28.117188 -41.191406 28.046875 -40.796875 C 27.972656 -40.410156 27.898438 -40.070312 27.828125 -39.78125 L 19.484375 -9.84375 C 19.347656 -9.332031 19.289062 -8.925781 19.3125 -8.625 C 19.332031 -8.226562 19.484375 -7.890625 19.765625 -7.609375 C 20.054688 -7.328125 20.445312 -7.203125 20.9375 -7.234375 C 22.0625 -7.304688 23.210938 -8.050781 24.390625 -9.46875 C 25.578125 -10.882812 26.640625 -13.117188 27.578125 -16.171875 C 27.765625 -16.984375 28.148438 -17.59375 28.734375 -18 C 29.328125 -18.40625 29.953125 -18.628906 30.609375 -18.671875 Z M 7.84375 -8.171875 C 8.175781 -8.128906 8.585938 -8.195312 9.078125 -8.375 C 9.566406 -8.5625 10.078125 -8.957031 10.609375 -9.5625 C 11.140625 -10.175781 11.609375 -11.117188 12.015625 -12.390625 L 13.71875 -18.21875 C 13.90625 -18.875 14.023438 -19.445312 14.078125 -19.9375 C 14.128906 -20.425781 14.144531 -20.851562 14.125 -21.21875 C 14.070312 -22.070312 13.816406 -22.707031 13.359375 -23.125 C 12.898438 -23.539062 12.4375 -23.738281 11.96875 -23.71875 C 11.570312 -23.6875 11.085938 -23.441406 10.515625 -22.984375 C 9.953125 -22.535156 9.460938 -21.570312 9.046875 -20.09375 L 6.71875 -11.609375 C 6.664062 -11.367188 6.613281 -11.101562 6.5625 -10.8125 C 6.519531 -10.53125 6.507812 -10.222656 6.53125 -9.890625 C 6.550781 -9.492188 6.65625 -9.132812 6.84375 -8.8125 C 7.03125 -8.488281 7.363281 -8.273438 7.84375 -8.171875 Z M 7.84375 -8.171875 "/></g></g></g><g fill="#ffffff" fill-opacity="1"><g transform="translate(210.97031, 239.963064)"><g><path d="M 20.40625 -11.703125 C 20.5 -11.671875 20.613281 -11.660156 20.75 -11.671875 C 20.882812 -11.679688 21 -11.691406 21.09375 -11.703125 C 22.5625 -11.785156 23.820312 -12.347656 24.875 -13.390625 C 25.9375 -14.429688 26.6875 -15.738281 27.125 -17.3125 C 27.320312 -18.25 27.722656 -18.945312 28.328125 -19.40625 C 28.929688 -19.863281 29.5625 -20.109375 30.21875 -20.140625 C 30.957031 -20.191406 31.625 -19.984375 32.21875 -19.515625 C 32.8125 -19.046875 33.140625 -18.347656 33.203125 -17.421875 C 33.222656 -17.023438 33.171875 -16.519531 33.046875 -15.90625 C 32.585938 -14.15625 31.816406 -12.53125 30.734375 -11.03125 C 29.660156 -9.53125 28.332031 -8.304688 26.75 -7.359375 C 25.164062 -6.410156 23.390625 -5.875 21.421875 -5.75 C 20.398438 -5.6875 19.398438 -5.765625 18.421875 -5.984375 C 17.503906 -4.128906 16.226562 -2.789062 14.59375 -1.96875 C 12.96875 -1.15625 11.171875 -0.6875 9.203125 -0.5625 C 7.515625 -0.457031 5.925781 -0.691406 4.4375 -1.265625 C 2.957031 -1.847656 1.726562 -2.738281 0.75 -3.9375 C -0.21875 -5.144531 -0.753906 -6.613281 -0.859375 -8.34375 C -0.890625 -8.90625 -0.875 -9.488281 -0.8125 -10.09375 C -0.75 -10.695312 -0.625 -11.320312 -0.4375 -11.96875 L 2.578125 -22.421875 C 3.003906 -23.960938 3.734375 -25.289062 4.765625 -26.40625 C 5.796875 -27.519531 7.007812 -28.390625 8.40625 -29.015625 C 9.800781 -29.640625 11.273438 -30.003906 12.828125 -30.109375 C 14.617188 -30.210938 16.253906 -29.960938 17.734375 -29.359375 C 19.222656 -28.753906 20.429688 -27.835938 21.359375 -26.609375 C 22.285156 -25.378906 22.800781 -23.921875 22.90625 -22.234375 C 22.945312 -21.578125 22.863281 -20.722656 22.65625 -19.671875 C 22.457031 -18.628906 22.207031 -17.625 21.90625 -16.65625 C 21.601562 -15.6875 21.3125 -14.976562 21.03125 -14.53125 C 20.726562 -14.007812 20.414062 -13.625 20.09375 -13.375 C 20.226562 -12.925781 20.3125 -12.523438 20.34375 -12.171875 C 20.382812 -11.828125 20.40625 -11.671875 20.40625 -11.703125 Z M 15.3125 -19.078125 C 15.445312 -19.617188 15.5625 -20.164062 15.65625 -20.71875 C 15.757812 -21.28125 15.800781 -21.769531 15.78125 -22.1875 C 15.738281 -22.75 15.46875 -23.242188 14.96875 -23.671875 C 14.476562 -24.097656 13.851562 -24.285156 13.09375 -24.234375 C 12.320312 -24.191406 11.570312 -23.921875 10.84375 -23.421875 C 10.113281 -22.921875 9.625 -22.25 9.375 -21.40625 L 6.453125 -11.09375 C 6.367188 -10.851562 6.289062 -10.515625 6.21875 -10.078125 C 6.15625 -9.640625 6.132812 -9.1875 6.15625 -8.71875 C 6.195312 -8.113281 6.394531 -7.570312 6.75 -7.09375 C 7.113281 -6.625 7.78125 -6.421875 8.75 -6.484375 C 9.507812 -6.523438 10.207031 -6.78125 10.84375 -7.25 C 11.488281 -7.726562 11.941406 -8.410156 12.203125 -9.296875 C 11.722656 -9.660156 11.285156 -10.085938 10.890625 -10.578125 C 10.492188 -11.078125 10.253906 -11.742188 10.171875 -12.578125 C 10.109375 -13.554688 10.289062 -14.453125 10.71875 -15.265625 C 11.15625 -16.078125 11.757812 -16.710938 12.53125 -17.171875 C 13.300781 -17.640625 14.140625 -17.851562 15.046875 -17.8125 C 15.066406 -18.019531 15.101562 -18.222656 15.15625 -18.421875 C 15.207031 -18.617188 15.257812 -18.835938 15.3125 -19.078125 Z M 15.3125 -19.078125 "/></g></g></g><g fill="#ffffff" fill-opacity="1"><g transform="translate(236.943682, 238.364778)"><g><path d="M 24.34375 -15.96875 C 24.53125 -16.757812 24.894531 -17.328125 25.4375 -17.671875 C 25.988281 -18.015625 26.578125 -18.207031 27.203125 -18.25 C 27.992188 -18.300781 28.742188 -18.125 29.453125 -17.71875 C 30.160156 -17.3125 30.539062 -16.726562 30.59375 -15.96875 C 30.601562 -15.738281 30.566406 -15.46875 30.484375 -15.15625 C 29.285156 -10.863281 27.585938 -7.488281 25.390625 -5.03125 C 23.191406 -2.582031 20.734375 -1.273438 18.015625 -1.109375 C 16.648438 -1.023438 15.367188 -1.242188 14.171875 -1.765625 C 12.972656 -2.296875 12 -3.078125 11.25 -4.109375 C 10.507812 -5.140625 10.097656 -6.375 10.015625 -7.8125 C 9.953125 -8.800781 10.082031 -9.875 10.40625 -11.03125 L 12.21875 -17.234375 C 12.289062 -17.609375 12.320312 -17.910156 12.3125 -18.140625 C 12.269531 -18.710938 12.066406 -19.132812 11.703125 -19.40625 C 11.347656 -19.6875 10.914062 -19.898438 10.40625 -20.046875 C 9.90625 -20.203125 9.414062 -20.332031 8.9375 -20.4375 L 6.59375 -12.796875 C 6.351562 -11.984375 5.921875 -11.359375 5.296875 -10.921875 C 4.671875 -10.484375 4.015625 -10.238281 3.328125 -10.1875 C 2.628906 -10.144531 1.992188 -10.316406 1.421875 -10.703125 C 0.847656 -11.085938 0.535156 -11.691406 0.484375 -12.515625 C 0.460938 -12.847656 0.488281 -13.210938 0.5625 -13.609375 L 3.578125 -23.65625 C 2.703125 -24.625 2.222656 -25.773438 2.140625 -27.109375 C 2.054688 -28.523438 2.390625 -29.804688 3.140625 -30.953125 C 3.898438 -32.109375 5.007812 -32.726562 6.46875 -32.8125 C 7.601562 -32.882812 8.625 -32.53125 9.53125 -31.75 C 10.445312 -30.96875 10.9375 -30.003906 11 -28.859375 C 11.03125 -28.390625 10.988281 -27.96875 10.875 -27.59375 C 11.59375 -27.4375 12.453125 -27.195312 13.453125 -26.875 C 14.453125 -26.550781 15.453125 -26.117188 16.453125 -25.578125 C 17.453125 -25.046875 18.289062 -24.375 18.96875 -23.5625 C 19.65625 -22.757812 20.035156 -21.765625 20.109375 -20.578125 C 20.140625 -20.140625 20.125 -19.691406 20.0625 -19.234375 C 20.007812 -18.785156 19.914062 -18.304688 19.78125 -17.796875 L 17.359375 -9.453125 C 17.242188 -9.085938 17.195312 -8.722656 17.21875 -8.359375 C 17.238281 -8.023438 17.347656 -7.722656 17.546875 -7.453125 C 17.753906 -7.179688 18.023438 -7.054688 18.359375 -7.078125 C 19.421875 -7.140625 20.484375 -8.019531 21.546875 -9.71875 C 22.617188 -11.414062 23.550781 -13.5 24.34375 -15.96875 Z M 24.34375 -15.96875 "/></g></g></g><g fill="#ffffff" fill-opacity="1"><g transform="translate(260.478948, 236.916522)"><g><path d="M 30.171875 -18.75 C 30.898438 -18.789062 31.550781 -18.613281 32.125 -18.21875 C 32.695312 -17.820312 33.007812 -17.191406 33.0625 -16.328125 C 33.09375 -15.890625 33.007812 -15.332031 32.8125 -14.65625 C 32.625 -13.988281 32.375 -13.160156 32.0625 -12.171875 C 31.164062 -9.398438 30.023438 -7.242188 28.640625 -5.703125 C 27.253906 -4.160156 25.789062 -3.046875 24.25 -2.359375 C 22.707031 -1.679688 21.242188 -1.300781 19.859375 -1.21875 C 19.359375 -1.1875 18.679688 -1.210938 17.828125 -1.296875 C 16.972656 -1.378906 16.109375 -1.582031 15.234375 -1.90625 C 14.367188 -2.238281 13.644531 -2.769531 13.0625 -3.5 C 12.1875 -2.625 11.191406 -1.90625 10.078125 -1.34375 C 8.960938 -0.789062 7.828125 -0.476562 6.671875 -0.40625 C 5.203125 -0.320312 3.867188 -0.582031 2.671875 -1.1875 C 1.472656 -1.800781 0.5 -2.65625 -0.25 -3.75 C -1.007812 -4.851562 -1.429688 -6.085938 -1.515625 -7.453125 C -1.535156 -7.921875 -1.507812 -8.378906 -1.4375 -8.828125 C -1.375 -9.285156 -1.285156 -9.734375 -1.171875 -10.171875 L 2.671875 -23.84375 C 3.222656 -25.8125 4.265625 -27.296875 5.796875 -28.296875 C 7.335938 -29.304688 8.921875 -29.863281 10.546875 -29.96875 C 11.804688 -30.039062 12.914062 -29.957031 13.875 -29.71875 C 14.84375 -29.488281 15.601562 -29.222656 16.15625 -28.921875 C 16.519531 -29.578125 17.019531 -30.082031 17.65625 -30.4375 C 18.300781 -30.789062 18.972656 -30.988281 19.671875 -31.03125 C 20.597656 -31.082031 21.453125 -30.851562 22.234375 -30.34375 C 23.015625 -29.832031 23.4375 -29.023438 23.5 -27.921875 C 23.53125 -27.421875 23.46875 -26.867188 23.3125 -26.265625 L 18.734375 -9.796875 C 18.609375 -9.191406 18.554688 -8.707031 18.578125 -8.34375 C 18.628906 -7.507812 19.101562 -7.117188 20 -7.171875 C 20.757812 -7.222656 21.5625 -7.53125 22.40625 -8.09375 C 23.257812 -8.664062 24.082031 -9.570312 24.875 -10.8125 C 25.664062 -12.0625 26.3125 -13.71875 26.8125 -15.78125 C 27.050781 -16.769531 27.492188 -17.5 28.140625 -17.96875 C 28.796875 -18.445312 29.472656 -18.707031 30.171875 -18.75 Z M 13.71875 -18.21875 C 14.03125 -19.519531 14.164062 -20.519531 14.125 -21.21875 C 14.070312 -22.070312 13.816406 -22.707031 13.359375 -23.125 C 12.898438 -23.539062 12.4375 -23.738281 11.96875 -23.71875 C 11.570312 -23.6875 11.078125 -23.457031 10.484375 -23.03125 C 9.898438 -22.613281 9.421875 -21.632812 9.046875 -20.09375 L 6.484375 -9.890625 C 6.429688 -9.648438 6.378906 -9.390625 6.328125 -9.109375 C 6.273438 -8.828125 6.257812 -8.519531 6.28125 -8.1875 C 6.363281 -6.957031 6.953125 -6.375 8.046875 -6.4375 C 8.578125 -6.46875 9.226562 -6.765625 10 -7.328125 C 10.769531 -7.898438 11.363281 -9.015625 11.78125 -10.671875 Z M 13.71875 -18.21875 "/></g></g></g><g fill="#ffffff" fill-opacity="1"><g transform="translate(286.601577, 235.309052)"><g><path d="M 25.5625 -15.703125 C 25.78125 -16.453125 26.148438 -17 26.671875 -17.34375 C 27.203125 -17.695312 27.765625 -17.894531 28.359375 -17.9375 C 29.148438 -17.976562 29.898438 -17.785156 30.609375 -17.359375 C 31.328125 -16.941406 31.707031 -16.363281 31.75 -15.625 C 31.757812 -15.53125 31.765625 -15.421875 31.765625 -15.296875 C 31.773438 -15.179688 31.753906 -15.078125 31.703125 -14.984375 C 30.742188 -11.566406 29.3125 -8.820312 27.40625 -6.75 C 25.507812 -4.6875 23.289062 -3.160156 20.75 -2.171875 C 18.207031 -1.191406 15.488281 -0.613281 12.59375 -0.4375 C 9.6875 -0.25 7.1875 -0.472656 5.09375 -1.109375 C 3.007812 -1.742188 1.394531 -2.6875 0.25 -3.9375 C -0.882812 -5.1875 -1.503906 -6.625 -1.609375 -8.25 C -1.671875 -9.3125 -1.550781 -10.398438 -1.25 -11.515625 C -0.957031 -12.628906 -0.460938 -13.628906 0.234375 -14.515625 C 0.929688 -15.410156 1.816406 -16.023438 2.890625 -16.359375 C 3.773438 -18.285156 4.671875 -20.234375 5.578125 -22.203125 C 6.484375 -24.171875 7.363281 -26.128906 8.21875 -28.078125 C 8.625 -29.066406 9.25 -29.828125 10.09375 -30.359375 C 10.9375 -30.898438 11.820312 -31.203125 12.75 -31.265625 C 14.007812 -31.335938 15.039062 -30.972656 15.84375 -30.171875 C 16.644531 -29.378906 17.082031 -28.453125 17.15625 -27.390625 C 17.195312 -26.648438 16.992188 -25.90625 16.546875 -25.15625 C 16.109375 -24.414062 15.550781 -23.878906 14.875 -23.546875 C 15.03125 -22.785156 15.347656 -22.003906 15.828125 -21.203125 C 16.316406 -20.410156 16.835938 -19.597656 17.390625 -18.765625 C 18.148438 -17.640625 18.882812 -16.421875 19.59375 -15.109375 C 20.300781 -13.804688 20.703125 -12.425781 20.796875 -10.96875 C 20.816406 -10.632812 20.816406 -10.316406 20.796875 -10.015625 C 20.785156 -9.722656 20.753906 -9.40625 20.703125 -9.0625 C 21.828125 -9.800781 22.789062 -10.722656 23.59375 -11.828125 C 24.394531 -12.929688 25.050781 -14.222656 25.5625 -15.703125 Z M 9.703125 -16.078125 C 10.160156 -15.671875 10.503906 -15.195312 10.734375 -14.65625 C 10.972656 -14.125 11.113281 -13.582031 11.15625 -13.03125 C 11.226562 -11.800781 10.894531 -10.648438 10.15625 -9.578125 C 9.414062 -8.515625 8.316406 -7.941406 6.859375 -7.859375 C 6.691406 -7.847656 6.507812 -7.84375 6.3125 -7.84375 C 6.113281 -7.851562 5.910156 -7.867188 5.703125 -7.890625 C 6.003906 -7.273438 6.515625 -6.804688 7.234375 -6.484375 C 7.953125 -6.160156 8.726562 -6.023438 9.5625 -6.078125 C 10.894531 -6.222656 11.847656 -6.738281 12.421875 -7.625 C 12.992188 -8.507812 13.242188 -9.535156 13.171875 -10.703125 C 13.097656 -11.867188 12.769531 -13.003906 12.1875 -14.109375 C 11.613281 -15.222656 10.921875 -16.207031 10.109375 -17.0625 Z M 9.703125 -16.078125 "/></g></g></g><g clip-path="url(#1ad0ed07e9)"><g clip-path="url(#7441686c71)"><path stroke-linecap="butt" transform="matrix(0.75, 0, 0, 0.75, 148.666915, 119.985242)" fill="none" stroke-linejoin="miter" d="M 47.688908 -0.00115563 C 21.350365 -0.00115563 0.00140535 21.353012 0.00140535 47.686348 C 0.00140535 74.024891 21.350365 95.373851 47.688908 95.373851 C 74.022244 95.373851 95.376412 74.024891 95.376412 47.686348 C 95.376412 21.353012 74.022244 -0.00115563 47.688908 -0.00115563 Z M 47.688908 -0.00115563 " stroke="#0a57a2" stroke-width="10" stroke-opacity="1" stroke-miterlimit="4"/></g></g><g clip-path="url(#53b1f4e322)"><path fill="#36a9e1" d="M 210.097656 145.273438 C 209.851562 144.695312 209.589844 144.128906 209.308594 143.570312 C 209.175781 143.269531 209.035156 143.003906 208.890625 142.769531 C 208.886719 142.761719 208.882812 142.753906 208.878906 142.746094 C 208.875 142.746094 208.875 142.742188 208.871094 142.742188 C 208.871094 142.742188 208.871094 142.742188 208.871094 142.738281 C 207.78125 141.007812 206.488281 141.113281 206.175781 141.167969 C 204.566406 141.136719 203.84375 143.898438 203.84375 143.898438 C 202.625 149.703125 199.105469 150.570312 199.050781 150.582031 C 201.667969 148.355469 201.390625 142.785156 198.214844 142.785156 C 195.585938 142.785156 195.4375 146.066406 195.464844 147.195312 C 195.410156 147.890625 195.296875 148.835938 195.070312 149.710938 C 193.808594 153.886719 190.324219 155.457031 187.421875 156.019531 C 186.203125 156.203125 184.058594 156.359375 181.863281 155.765625 C 173.660156 152.59375 169.019531 159.832031 169.019531 159.832031 C 164.554688 166.660156 160.191406 164.925781 157.820312 163.0625 C 157.816406 163.058594 157.816406 163.058594 157.8125 163.058594 C 157.78125 163.03125 157.75 163.007812 157.71875 162.980469 C 157.507812 162.8125 157.3125 162.640625 157.132812 162.476562 C 157.136719 162.484375 157.140625 162.496094 157.140625 162.503906 C 156.953125 162.332031 156.753906 162.132812 156.554688 161.90625 C 156.921875 163.714844 157.472656 165.484375 158.195312 167.199219 C 159.617188 170.554688 161.644531 173.566406 164.230469 176.152344 C 166.820312 178.738281 169.832031 180.769531 173.183594 182.1875 C 176.65625 183.65625 180.34375 184.398438 184.148438 184.398438 C 187.949219 184.398438 191.636719 183.65625 195.109375 182.1875 C 198.464844 180.769531 201.476562 178.738281 204.0625 176.152344 C 206.648438 173.566406 208.679688 170.554688 210.097656 167.199219 C 211.566406 163.726562 212.308594 160.039062 212.308594 156.238281 C 212.308594 152.433594 211.566406 148.746094 210.097656 145.273438 Z M 203.46875 149.890625 C 204.433594 149.890625 205.214844 150.675781 205.214844 151.636719 C 205.214844 152.601562 204.433594 153.382812 203.46875 153.382812 C 202.503906 153.382812 201.722656 152.601562 201.722656 151.636719 C 201.722656 150.675781 202.503906 149.890625 203.46875 149.890625 Z M 207.84375 169.722656 C 205.960938 171.785156 202.492188 174.789062 198.9375 173.8125 C 198.9375 173.8125 205.140625 169.839844 202.207031 167.90625 C 199.269531 165.976562 197.894531 174.222656 186.679688 172.476562 C 186.679688 172.476562 179.660156 170.582031 176.390625 172.8125 C 173.785156 174.585938 170.234375 176.554688 165.980469 176.5625 C 163.582031 174.414062 161.566406 171.851562 160.042969 168.988281 C 161.632812 169.683594 163.988281 170.09375 167.027344 168.910156 C 173.046875 166.570312 171.523438 160.738281 182.742188 164.566406 C 187.8125 166.292969 191.730469 164.496094 194.5 162.003906 C 194.703125 161.820312 194.902344 161.632812 195.09375 161.441406 C 195.398438 161.136719 195.691406 160.828125 195.964844 160.515625 C 197.6875 158.410156 199.34375 154.933594 199.34375 154.933594 L 199.351562 154.933594 C 199.570312 154.25 200.210938 153.753906 200.96875 153.753906 C 201.609375 153.753906 202.164062 154.109375 202.453125 154.632812 C 202.507812 154.730469 202.550781 154.832031 202.585938 154.941406 C 202.628906 155.078125 202.652344 155.21875 202.660156 155.367188 C 202.660156 155.367188 202.660156 155.371094 202.660156 155.371094 C 202.734375 156.0625 202.640625 157.222656 201.773438 158.835938 C 200.6875 161.140625 198.898438 163.265625 198.898438 163.265625 C 198.898438 163.265625 202.800781 162.671875 204.84375 158.769531 C 206.476562 155.652344 209.320312 153.554688 211.34375 154.207031 C 211.394531 154.875 211.417969 155.554688 211.417969 156.238281 C 211.417969 161.140625 210.117188 165.742188 207.84375 169.722656 Z M 205.882812 165.753906 C 205.882812 166.71875 205.101562 167.5 204.136719 167.5 C 203.171875 167.5 202.390625 166.71875 202.390625 165.753906 C 202.390625 164.789062 203.171875 164.007812 204.136719 164.007812 C 205.101562 164.007812 205.882812 164.789062 205.882812 165.753906 Z M 196.820312 139.453125 C 196.820312 138.492188 197.601562 137.710938 198.566406 137.710938 C 199.53125 137.710938 200.3125 138.492188 200.3125 139.453125 C 200.3125 140.417969 199.53125 141.199219 198.566406 141.199219 C 197.601562 141.199219 196.820312 140.417969 196.820312 139.453125 Z M 196.820312 139.453125 " fill-opacity="1" fill-rule="nonzero"/></g><path stroke-linecap="round" transform="matrix(0.75, 0.000000000000000625, -0.000000000000000625, 0.75, 118.753379, 104.477477)" fill="none" stroke-linejoin="miter" d="M 5.500703 5.498781 L 28.589246 5.498781 " stroke="#00529c" stroke-width="11" stroke-opacity="1" stroke-miterlimit="4"/><g clip-path="url(#e4318822a7)"><g clip-path="url(#f0ab84edc2)"><path fill="#00529c" d="M 229.421875 102.324219 L 247.082031 102.324219 L 247.082031 119.984375 L 229.421875 119.984375 Z M 229.421875 102.324219 " fill-opacity="1" fill-rule="nonzero"/></g></g><g fill="#ffffff" fill-opacity="1"><g transform="translate(141.262744, 277.353367)"><g><path d="M 2.625 0.15625 C 2.039062 0.144531 1.582031 -0.0351562 1.25 -0.390625 C 0.914062 -0.753906 0.753906 -1.210938 0.765625 -1.765625 C 0.773438 -2.304688 0.953125 -2.742188 1.296875 -3.078125 C 1.640625 -3.421875 2.101562 -3.585938 2.6875 -3.578125 C 3.28125 -3.566406 3.738281 -3.382812 4.0625 -3.03125 C 4.394531 -2.6875 4.554688 -2.242188 4.546875 -1.703125 C 4.535156 -1.148438 4.359375 -0.695312 4.015625 -0.34375 C 3.679688 0 3.21875 0.164062 2.625 0.15625 Z M 2.625 0.15625 "/></g></g></g><g fill="#ffffff" fill-opacity="1"><g transform="translate(148.829082, 277.485438)"><g><path d="M 7.796875 0.359375 C 6.421875 0.328125 5.21875 0.0078125 4.1875 -0.59375 C 3.164062 -1.195312 2.375 -2.03125 1.8125 -3.09375 C 1.25 -4.164062 0.984375 -5.398438 1.015625 -6.796875 C 1.035156 -8.210938 1.335938 -9.441406 1.921875 -10.484375 C 2.515625 -11.523438 3.335938 -12.328125 4.390625 -12.890625 C 5.441406 -13.453125 6.65625 -13.71875 8.03125 -13.6875 C 9.414062 -13.664062 10.617188 -13.359375 11.640625 -12.765625 C 12.671875 -12.171875 13.46875 -11.34375 14.03125 -10.28125 C 14.59375 -9.21875 14.863281 -7.976562 14.84375 -6.5625 C 14.8125 -5.164062 14.5 -3.941406 13.90625 -2.890625 C 13.3125 -1.847656 12.488281 -1.039062 11.4375 -0.46875 C 10.394531 0.101562 9.179688 0.378906 7.796875 0.359375 Z M 7.84375 -2.625 C 8.851562 -2.613281 9.648438 -2.957031 10.234375 -3.65625 C 10.816406 -4.363281 11.125 -5.351562 11.15625 -6.625 C 11.175781 -7.90625 10.90625 -8.90625 10.34375 -9.625 C 9.789062 -10.34375 9.003906 -10.707031 7.984375 -10.71875 C 6.972656 -10.738281 6.175781 -10.398438 5.59375 -9.703125 C 5.019531 -9.003906 4.722656 -8.015625 4.703125 -6.734375 C 4.671875 -5.460938 4.929688 -4.460938 5.484375 -3.734375 C 6.046875 -3.015625 6.832031 -2.644531 7.84375 -2.625 Z M 7.84375 -2.625 "/></g></g></g><g fill="#ffffff" fill-opacity="1"><g transform="translate(166.719509, 277.797716)"><g><path d="M 2.890625 0.21875 C 1.785156 0.195312 1.242188 -0.367188 1.265625 -1.484375 L 1.4375 -12.015625 C 1.445312 -12.578125 1.59375 -13.003906 1.875 -13.296875 C 2.164062 -13.597656 2.546875 -13.742188 3.015625 -13.734375 C 3.429688 -13.722656 3.75 -13.640625 3.96875 -13.484375 C 4.195312 -13.328125 4.453125 -13.066406 4.734375 -12.703125 L 10.1875 -5.640625 L 10.3125 -11.953125 C 10.320312 -13.054688 10.875 -13.597656 11.96875 -13.578125 C 12.507812 -13.566406 12.914062 -13.414062 13.1875 -13.125 C 13.46875 -12.832031 13.609375 -12.421875 13.609375 -11.890625 L 13.421875 -1.1875 C 13.410156 -0.695312 13.269531 -0.3125 13 -0.03125 C 12.738281 0.25 12.390625 0.382812 11.953125 0.375 C 11.515625 0.375 11.171875 0.289062 10.921875 0.125 C 10.671875 -0.03125 10.410156 -0.289062 10.140625 -0.65625 L 4.671875 -7.71875 L 4.5625 -1.421875 C 4.539062 -0.304688 3.984375 0.238281 2.890625 0.21875 Z M 2.890625 0.21875 "/></g></g></g><g fill="#ffffff" fill-opacity="1"><g transform="translate(183.664366, 278.09349)"><g><path d="M 3.03125 0.046875 C 2.445312 0.0351562 2.003906 -0.128906 1.703125 -0.453125 C 1.398438 -0.773438 1.253906 -1.21875 1.265625 -1.78125 L 1.4375 -11.828125 C 1.445312 -12.398438 1.609375 -12.835938 1.921875 -13.140625 C 2.234375 -13.453125 2.675781 -13.601562 3.25 -13.59375 C 3.8125 -13.582031 4.242188 -13.414062 4.546875 -13.09375 C 4.859375 -12.78125 5.007812 -12.335938 5 -11.765625 L 4.84375 -2.875 L 9.546875 -2.78125 C 10.035156 -2.78125 10.410156 -2.648438 10.671875 -2.390625 C 10.929688 -2.128906 11.0625 -1.765625 11.0625 -1.296875 C 11.050781 -0.816406 10.910156 -0.453125 10.640625 -0.203125 C 10.367188 0.046875 9.988281 0.171875 9.5 0.171875 Z M 3.03125 0.046875 "/></g></g></g><g fill="#ffffff" fill-opacity="1"><g transform="translate(197.270773, 278.330991)"><g><path d="M 3.015625 0.21875 C 2.441406 0.207031 2.003906 0.046875 1.703125 -0.265625 C 1.398438 -0.578125 1.253906 -1.03125 1.265625 -1.625 L 1.4375 -11.953125 C 1.445312 -12.546875 1.609375 -12.992188 1.921875 -13.296875 C 2.234375 -13.597656 2.675781 -13.742188 3.25 -13.734375 C 3.8125 -13.722656 4.242188 -13.5625 4.546875 -13.25 C 4.859375 -12.9375 5.007812 -12.484375 5 -11.890625 L 4.828125 -1.5625 C 4.816406 -0.96875 4.65625 -0.519531 4.34375 -0.21875 C 4.03125 0.0820312 3.585938 0.226562 3.015625 0.21875 Z M 3.015625 0.21875 "/></g></g></g><g fill="#ffffff" fill-opacity="1"><g transform="translate(205.609007, 278.476535)"><g><path d="M 2.890625 0.21875 C 1.785156 0.195312 1.242188 -0.367188 1.265625 -1.484375 L 1.4375 -12.015625 C 1.445312 -12.578125 1.59375 -13.003906 1.875 -13.296875 C 2.164062 -13.597656 2.546875 -13.742188 3.015625 -13.734375 C 3.429688 -13.722656 3.75 -13.640625 3.96875 -13.484375 C 4.195312 -13.328125 4.453125 -13.066406 4.734375 -12.703125 L 10.1875 -5.640625 L 10.3125 -11.953125 C 10.320312 -13.054688 10.875 -13.597656 11.96875 -13.578125 C 12.507812 -13.566406 12.914062 -13.414062 13.1875 -13.125 C 13.46875 -12.832031 13.609375 -12.421875 13.609375 -11.890625 L 13.421875 -1.1875 C 13.410156 -0.695312 13.269531 -0.3125 13 -0.03125 C 12.738281 0.25 12.390625 0.382812 11.953125 0.375 C 11.515625 0.375 11.171875 0.289062 10.921875 0.125 C 10.671875 -0.03125 10.410156 -0.289062 10.140625 -0.65625 L 4.671875 -7.71875 L 4.5625 -1.421875 C 4.539062 -0.304688 3.984375 0.238281 2.890625 0.21875 Z M 2.890625 0.21875 "/></g></g></g><g fill="#ffffff" fill-opacity="1"><g transform="translate(222.55386, 278.772309)"><g><path d="M 3.09375 0.046875 C 1.851562 0.0234375 1.242188 -0.59375 1.265625 -1.8125 L 1.4375 -11.765625 C 1.457031 -12.984375 2.085938 -13.582031 3.328125 -13.5625 L 9.875 -13.4375 C 10.800781 -13.425781 11.257812 -12.972656 11.25 -12.078125 C 11.226562 -11.148438 10.753906 -10.691406 9.828125 -10.703125 L 4.828125 -10.796875 L 4.78125 -8.203125 L 9.359375 -8.125 C 10.285156 -8.101562 10.742188 -7.632812 10.734375 -6.71875 C 10.710938 -5.8125 10.238281 -5.367188 9.3125 -5.390625 L 4.734375 -5.46875 L 4.6875 -2.671875 L 9.6875 -2.578125 C 10.613281 -2.566406 11.070312 -2.101562 11.0625 -1.1875 C 11.039062 -0.269531 10.566406 0.179688 9.640625 0.171875 Z M 3.09375 0.046875 "/></g></g></g><g fill="#00529c" fill-opacity="1"><g transform="translate(270.834421, 102.232107)"><g><path d="M 6.578125 -10.21875 L 6.578125 0 L 3.984375 0 L 3.984375 -10.21875 L 0.234375 -10.21875 L 0.234375 -12.40625 L 10.328125 -12.40625 L 10.328125 -10.21875 Z M 6.578125 -10.21875 "/></g></g></g><g fill="#00529c" fill-opacity="1"><g transform="translate(281.388755, 102.232107)"><g><path d="M 7.265625 -2.625 L 9.46875 -12.40625 L 13.21875 -12.40625 L 13.21875 0 L 10.796875 0 L 10.796875 -10.375 L 10.765625 -10.375 L 8.453125 0 L 5.90625 0 L 3.640625 -10.375 L 3.609375 -10.375 L 3.609375 0 L 1.1875 0 L 1.1875 -12.40625 L 4.984375 -12.40625 L 7.21875 -2.625 Z M 7.265625 -2.625 "/></g></g></g></svg>