<?xml version="1.0" encoding="UTF-8"?><svg xmlns="http://www.w3.org/2000/svg" xmlns:xlink="http://www.w3.org/1999/xlink" version="1.2" width="100%" viewBox="0 0 1563 1563" xml:space="preserve" baseProfile="tiny-ps"><title>lavadoras</title><path fill="#FFFFFF" stroke="none" d=" M1035.000000,1564.000000   C690.000122,1564.000000 345.500214,1564.000000 1.000231,1564.000000   C1.000154,1043.000244 1.000154,522.000488 1.000077,1.000581   C521.999573,1.000387 1042.999146,1.000387 1563.999023,1.000193   C1563.999390,521.999451 1563.999390,1042.998901 1563.999756,1563.999146   C1387.833374,1564.000000 1211.666626,1564.000000 1035.000000,1564.000000  M284.945404,763.482544   C280.140900,789.338196 281.896423,814.780945 289.997253,839.210632   C284.830109,843.805481 279.842896,847.736328 275.450531,852.246460   C264.932770,863.046326 258.071503,875.321472 260.858612,891.234924   C263.764587,907.827087 273.277283,919.231323 288.854797,924.661316   C304.802887,930.220337 319.045166,925.987061 330.729370,913.756348   C331.919769,912.510315 332.389862,910.576172 333.194214,908.961304   C333.935181,909.579468 334.676117,910.197632 335.417053,910.815796   C333.506012,917.576660 331.595001,924.337524 329.728333,930.941528   C300.907867,931.205627 290.550659,933.798279 273.085632,944.814270   C233.444229,969.817871 228.373917,1035.645996 277.166504,1059.797363   C308.386566,1075.250610 338.782593,1071.177002 367.349182,1051.954834   C369.760498,1050.332397 371.352844,1050.176392 374.013977,1051.025879   C380.955322,1053.241211 387.993896,1055.344849 395.149597,1056.614624   C398.762756,1057.255981 400.520111,1058.667236 402.106659,1061.756958   C417.905151,1092.522827 433.945068,1123.164917 449.733398,1153.935913   C465.275391,1184.226929 489.583588,1199.343140 523.961792,1199.266235   C641.618652,1199.002808 759.276550,1199.170654 876.934021,1199.162842   C925.430054,1199.159668 973.929443,1199.412842 1022.419189,1198.851685   C1031.321411,1198.748535 1040.598022,1196.366943 1048.981079,1193.155884   C1067.126831,1186.204956 1079.927490,1172.963379 1088.814087,1155.729980   C1113.046997,1108.736572 1137.383057,1061.796387 1161.805542,1014.901428   C1162.694336,1013.194641 1164.848145,1011.136780 1166.536377,1011.018799   C1178.261597,1010.199463 1189.608643,1008.184082 1200.290771,1002.993347   C1201.922852,1002.200256 1204.286987,1001.796814 1205.941895,1002.340698   C1221.742798,1007.533630 1237.931641,1008.278748 1254.303467,1006.834717   C1271.857544,1005.286316 1288.811890,1001.365173 1304.407593,992.826843   C1329.500732,979.088745 1344.038330,957.246887 1352.734009,930.592102   C1362.779907,899.797729 1338.172119,880.209839 1316.312866,879.796326   C1307.400391,879.627686 1299.069824,881.586731 1291.300415,886.015198   C1291.079590,885.340759 1290.955566,885.167969 1290.991577,885.040161   C1291.351685,883.761780 1291.716064,882.483704 1292.120850,881.218994   C1295.700562,870.033752 1294.240479,859.284363 1289.676025,848.663574   C1288.630371,846.230408 1288.060547,843.266602 1288.318115,840.650024   C1290.899902,814.410706 1287.313232,789.131165 1276.427979,765.093872   C1260.821655,730.631287 1235.971191,705.102539 1201.070923,690.184692   C1193.977173,687.152588 1192.563477,683.247925 1192.064819,676.345520   C1189.215454,636.909973 1169.450317,608.300110 1134.822632,589.800659   C1121.589844,582.731140 1107.267944,579.257874 1091.700684,578.716125   C1092.477173,574.389404 1093.198120,570.361206 1093.922974,566.333679   C1100.479126,529.907959 1107.067749,493.488129 1113.574097,457.053528   C1115.646851,445.445496 1118.257812,433.868042 1116.520630,421.923767   C1111.797241,389.448975 1083.707275,365.454346 1050.179565,365.515991   C863.194702,365.859741 676.208923,365.689880 489.223511,365.660400   C479.460327,365.658875 470.072174,367.044281 461.079315,371.107452   C433.591125,383.527313 419.497650,411.350586 422.632782,435.798676   C426.091095,462.766815 431.828156,489.442657 436.571045,516.246094   C438.183319,525.357910 439.790924,534.470459 441.354950,543.323975   C389.372650,564.287476 364.985840,602.224731 368.025299,657.855042   C365.979492,658.866028 363.891327,659.876953 361.821442,660.924133   C347.421875,668.209290 334.747833,677.803406 323.583038,689.435303   C303.709900,710.139954 291.018555,734.617371 284.945404,763.482544  M1228.904907,411.496094   C1228.904907,399.558868 1228.904907,387.621613 1228.904907,375.454285   C1223.385742,375.454285 1218.445679,375.454285 1213.200928,375.454285   C1210.245972,388.291687 1207.296143,401.106537 1204.346436,413.921387   C1200.637573,401.986816 1197.958496,390.193298 1195.072998,378.450439   C1194.770874,377.221436 1193.316284,375.450684 1192.283447,375.369598   C1187.898193,375.025299 1183.470459,375.223419 1178.985352,375.223419   C1178.985352,392.856476 1178.985352,409.787231 1178.985352,426.739807   C1182.313965,426.739807 1185.407349,426.739807 1188.854004,426.739807   C1188.854004,413.544922 1188.854004,400.616943 1188.854004,387.688965   C1189.129517,387.653778 1189.404907,387.618591 1189.680420,387.583405   C1192.556030,400.631042 1195.431641,413.678680 1198.313354,426.753845   C1202.026489,426.753845 1205.443604,426.753845 1208.951172,426.753845   C1211.955078,413.576843 1214.907837,400.623871 1217.860718,387.670868   C1218.260986,387.744354 1218.661255,387.817810 1219.061523,387.891296   C1219.061523,400.819977 1219.061523,413.748627 1219.061523,426.704834   C1222.449463,426.704834 1225.514648,426.704834 1228.904907,426.704834   C1228.904907,421.766815 1228.904907,417.130524 1228.904907,411.496094  M1163.495117,384.525604   C1166.557983,384.525604 1169.620850,384.525604 1172.480713,384.525604   C1172.480713,380.916779 1172.480713,378.195648 1172.480713,375.391357   C1158.481934,375.391357 1144.891113,375.391357 1131.108887,375.391357   C1131.108887,378.473022 1131.108887,381.368134 1131.108887,384.646088   C1136.192627,384.646088 1140.957275,384.646088 1146.268799,384.646088   C1146.268799,398.898071 1146.268799,412.777222 1146.268799,426.656342   C1150.216431,426.656342 1153.596558,426.656342 1157.315186,426.656342   C1157.315186,412.537720 1157.315186,398.778564 1157.315186,384.525299   C1159.284302,384.525299 1160.909302,384.525299 1163.495117,384.525604  z"></path><path fill="#0B58A3" stroke="none" d=" M284.988770,763.056763   C291.018555,734.617371 303.709900,710.139954 323.583038,689.435303   C334.747833,677.803406 347.421875,668.209290 361.821442,660.924133   C363.891327,659.876953 365.979492,658.866028 368.025299,657.855042   C364.985840,602.224731 389.372650,564.287476 441.354950,543.323975   C439.790924,534.470459 438.183319,525.357910 436.571045,516.246094   C431.828156,489.442657 426.091095,462.766815 422.632782,435.798676   C419.497650,411.350586 433.591125,383.527313 461.079315,371.107452   C470.072174,367.044281 479.460327,365.658875 489.223511,365.660400   C676.208923,365.689880 863.194702,365.859741 1050.179565,365.515991   C1083.707275,365.454346 1111.797241,389.448975 1116.520630,421.923767   C1118.257812,433.868042 1115.646851,445.445496 1113.574097,457.053528   C1107.067749,493.488129 1100.479126,529.907959 1093.922974,566.333679   C1093.198120,570.361206 1092.477173,574.389404 1091.700684,578.716125   C1107.267944,579.257874 1121.589844,582.731140 1134.822632,589.800659   C1169.450317,608.300110 1189.215454,636.909973 1192.064819,676.345520   C1192.563477,683.247925 1193.977173,687.152588 1201.070923,690.184692   C1235.971191,705.102539 1260.821655,730.631287 1276.427979,765.093872   C1287.313232,789.131165 1290.899902,814.410706 1288.318115,840.650024   C1288.060547,843.266602 1288.630371,846.230408 1289.676025,848.663574   C1294.240479,859.284363 1295.700562,870.033752 1292.120850,881.218994   C1291.716064,882.483704 1291.351685,883.761780 1290.991577,885.040161   C1290.955566,885.167969 1291.079590,885.340759 1291.300415,886.015198   C1299.069824,881.586731 1307.400391,879.627686 1316.312866,879.796326   C1338.172119,880.209839 1362.779907,899.797729 1352.734009,930.592102   C1344.038330,957.246887 1329.500732,979.088745 1304.407593,992.826843   C1288.811890,1001.365173 1271.857544,1005.286316 1254.303467,1006.834717   C1237.931641,1008.278748 1221.742798,1007.533630 1205.941895,1002.340698   C1204.286987,1001.796814 1201.922852,1002.200256 1200.290771,1002.993347   C1189.608643,1008.184082 1178.261597,1010.199463 1166.536377,1011.018799   C1164.848145,1011.136780 1162.694336,1013.194641 1161.805542,1014.901428   C1137.383057,1061.796387 1113.046997,1108.736572 1088.814087,1155.729980   C1079.927490,1172.963379 1067.126831,1186.204956 1048.981079,1193.155884   C1040.598022,1196.366943 1031.321411,1198.748535 1022.419189,1198.851685   C973.929443,1199.412842 925.430054,1199.159668 876.934021,1199.162842   C759.276550,1199.170654 641.618652,1199.002808 523.961792,1199.266235   C489.583588,1199.343140 465.275391,1184.226929 449.733398,1153.935913   C433.945068,1123.164917 417.905151,1092.522827 402.106659,1061.756958   C400.520111,1058.667236 398.762756,1057.255981 395.149597,1056.614624   C387.993896,1055.344849 380.955322,1053.241211 374.013977,1051.025879   C371.352844,1050.176392 369.760498,1050.332397 367.349182,1051.954834   C338.782593,1071.177002 308.386566,1075.250610 277.166504,1059.797363   C228.373917,1035.645996 233.444229,969.817871 273.085632,944.814270   C290.550659,933.798279 300.907867,931.205627 329.728333,930.941528   C331.595001,924.337524 333.506012,917.576660 335.417053,910.815796   C334.676117,910.197632 333.935181,909.579468 333.194214,908.961304   C332.389862,910.576172 331.919769,912.510315 330.729370,913.756348   C319.045166,925.987061 304.802887,930.220337 288.854797,924.661316   C273.277283,919.231323 263.764587,907.827087 260.858612,891.234924   C258.071503,875.321472 264.932770,863.046326 275.450531,852.246460   C279.842896,847.736328 284.830109,843.805481 289.997253,839.210632   C281.896423,814.780945 280.140900,789.338196 284.988770,763.056763  M556.987305,665.017334   C556.969421,655.023010 556.951477,645.028748 556.976929,634.143616   C557.360168,629.683960 557.449219,625.175720 558.175415,620.772644   C562.251343,596.057861 569.390198,572.374878 581.291626,550.157471   C599.266846,516.601501 623.980164,489.372955 656.283447,469.213165   C695.786499,444.560150 738.679993,433.471008 785.342163,436.839447   C806.206482,438.345581 826.298035,442.585236 845.867981,449.834320   C874.866455,460.575836 900.187073,477.105316 921.980408,498.844025   C933.980652,510.814240 944.492371,524.131042 953.263611,538.773010   C971.065857,568.490662 981.591370,600.479858 984.013794,635.991821   C984.031738,645.648987 984.049744,655.306152 984.023315,665.853333   C982.842102,674.545654 982.072144,683.317932 980.400574,691.914917   C975.828247,715.432190 967.433655,737.562073 955.332275,758.276733   C944.080566,777.536865 930.198364,794.714905 913.549744,809.471802   C909.464050,813.093201 909.386963,815.455994 910.817200,820.228638   C912.569153,826.075012 912.840027,832.480652 912.963501,838.660156   C913.049561,842.965759 911.810547,847.297852 911.006592,852.665222   C933.363281,845.556519 954.280762,846.777283 974.091675,858.273254   C974.838806,857.073792 975.298340,856.389771 975.704773,855.675537   C983.639160,841.731628 994.709900,832.385803 1011.339722,830.730530   C1012.696472,830.595459 1014.584106,828.166382 1014.911682,826.538879   C1017.266235,814.842529 1019.270569,803.075867 1021.405762,791.335083   C1025.913452,766.549866 1030.485474,741.776245 1034.934692,716.980530   C1040.466675,686.149719 1045.842773,655.290833 1051.395752,624.463867   C1056.155518,598.040161 1061.126343,571.654602 1065.901489,545.233643   C1072.209229,510.333740 1077.692261,475.264923 1084.914795,440.556885   C1089.995728,416.140045 1071.463013,396.753052 1051.179932,396.784393   C863.383850,397.074280 675.587036,397.049438 487.790833,396.814789   C468.775665,396.791046 450.035889,413.977997 454.259338,438.095337   C457.804260,458.337982 461.511627,478.552216 465.168213,498.775238   C471.449219,533.512756 477.774750,568.242126 484.029297,602.984375   C490.460266,638.706421 496.799835,674.444885 503.232544,710.166626   C509.782257,746.538269 516.395264,782.898438 522.983826,819.263062   C525.938171,835.569519 528.844360,851.885254 531.957153,868.161438   C532.228271,869.579407 533.621582,871.340393 534.938354,871.905273   C540.987671,874.500610 547.195190,876.727295 553.691467,879.218811   C568.190674,869.044678 584.115723,866.439758 600.865906,875.161560   C604.052490,876.820862 605.933777,876.585693 608.858948,874.893921   C626.773254,864.533203 644.841553,863.056885 663.027405,874.516113   C664.259338,875.292480 666.549377,874.990112 668.115784,874.479370   C669.962219,873.877441 671.517151,872.429993 673.265747,871.472107   C685.473633,864.785400 698.331665,861.363098 712.433716,862.731079   C717.279724,863.201172 722.275635,862.125854 727.203064,861.756531   C727.179993,861.263611 727.156921,860.770691 727.133911,860.277771   C726.722534,860.014038 726.340149,859.672974 725.892761,859.505310   C725.278564,859.275269 724.618469,859.161194 723.972412,859.023682   C686.298706,851.012024 653.591736,833.280579 625.263123,807.544800   C602.420166,786.792725 585.137390,761.881836 573.211121,733.376526   C564.178833,711.788208 558.562256,689.335205 556.987305,665.017334  M779.005798,919.459290   C774.996033,933.535706 771.293396,947.709412 766.876038,961.656738   C763.541321,972.185852 757.515564,980.875793 746.149353,984.163391   C739.579895,986.063538 736.640991,983.608582 737.804565,976.878113   C738.905029,970.513000 740.820435,964.280273 742.526733,958.030090   C747.476501,939.899536 752.777954,921.859741 757.397461,903.646301   C760.381714,891.880127 751.183167,882.836121 739.444092,885.967285   C734.899109,887.179688 730.905518,890.459412 726.660706,892.797302   C726.374695,893.594666 725.604614,893.320801 724.843933,893.023010   C703.962219,884.848755 676.124695,891.065552 669.587463,920.406006   C666.518127,934.181763 662.167053,947.686340 657.992188,961.188721   C657.215393,963.701050 654.925598,966.390930 652.603271,967.638550   C648.430176,969.880676 643.699463,969.783264 640.094910,966.141724   C636.193726,962.200500 636.508118,957.349487 638.599060,952.653931   C642.048889,944.906555 646.143860,937.419312 649.157532,929.513916   C651.376770,923.692566 653.286377,917.427490 653.590698,911.273926   C654.121277,900.545532 647.416565,894.153687 637.279602,893.956665   C629.546631,893.806335 623.116516,896.957458 618.340515,902.578003   C604.411072,918.970703 599.254822,937.646790 604.983215,958.833313   C605.329712,960.114868 605.468994,961.891235 604.849792,962.925598   C599.896484,971.199280 594.859070,979.429688 589.560242,987.484436   C588.129028,989.660034 585.715149,991.189209 583.752319,993.015076   C582.603394,990.449036 582.340393,988.497986 582.645386,986.640137   C584.856201,973.173096 587.171875,959.723145 589.474304,946.271240   C591.215332,936.099487 593.113892,925.952759 594.704529,915.757812   C596.089478,906.881165 592.062317,899.890137 584.802124,897.911011   C576.747192,895.715271 568.102905,900.084778 564.892700,908.090820   C564.155884,909.928284 563.637512,911.895203 563.318481,913.851440   C561.496948,925.022339 559.695190,936.197510 558.023621,947.391663   C556.270203,959.134033 553.696716,970.628845 547.930054,981.138000   C544.266113,987.815186 539.727112,993.926147 532.237549,996.517700   C529.374756,997.508301 524.871704,998.045166 523.040344,996.503296   C521.270325,995.013123 521.074341,990.368774 521.756165,987.480347   C524.314636,976.641785 527.502380,965.951294 530.477844,955.211792   C533.808350,943.190735 537.246277,931.198792 540.482300,919.152405   C542.871033,910.260071 540.628174,903.812744 534.299866,900.467407   C527.538757,896.893250 518.375854,898.709595 512.846802,904.714355   C512.081604,905.545349 511.293884,906.355591 510.537384,907.153503   C509.380127,906.698425 508.458466,906.330139 507.532593,905.972778   C488.765533,898.728882 460.551147,903.000305 453.215454,933.021118   C449.309296,949.007019 444.615112,964.811584 439.839691,980.565613   C438.690643,984.356201 436.395996,988.203979 433.612762,991.022949   C423.044250,1001.726990 405.814209,1003.436218 393.211487,995.199402   C388.775757,992.300293 384.927338,988.516541 380.678314,985.312378   C378.199615,983.443115 377.773102,981.579895 378.647919,978.499878   C383.873352,960.101501 388.805634,941.619812 393.859009,923.172363   C394.184906,921.982666 394.700714,920.845032 395.146820,919.632446   C398.685760,921.412292 401.684631,923.294495 404.940674,924.455017   C408.344513,925.668335 411.975189,926.791199 415.542175,926.912598   C439.568420,927.730225 459.864960,904.101868 456.553741,879.436279   C454.137512,861.437439 443.645508,849.438660 427.298004,846.521057   C418.174011,844.892700 409.387390,846.938293 400.965302,850.440369   C391.325073,854.448975 384.051117,861.383972 378.173828,870.203369   C376.498688,868.936951 375.197021,867.947388 373.889648,866.965515   C362.031158,858.059814 348.810669,853.422058 333.860413,854.063232   C316.001434,854.829163 301.336426,861.755005 290.606842,876.325806   C284.276886,884.921753 288.532288,896.785461 298.803711,899.243835   C304.649597,900.642944 308.688538,897.645325 312.318146,893.657166   C318.783478,886.553162 326.357117,882.052612 336.431427,882.891541   C348.440186,883.891479 357.507263,890.533691 366.033569,898.154297   C366.726715,898.773804 366.475800,900.896301 366.123077,902.170776   C362.263733,916.115051 358.294281,930.028809 354.360138,943.952393   C352.388550,950.930054 350.427917,957.910889 348.536682,964.626343   C347.806641,964.773315 347.617279,964.878174 347.494171,964.826172   C345.963776,964.179688 344.456329,963.477783 342.917908,962.851746   C322.275330,954.451172 302.627197,956.277161 284.961121,969.973633   C271.868103,980.124695 267.195831,994.307190 270.153137,1010.501038   C272.842773,1025.229126 282.716797,1034.146362 296.422089,1038.571045   C313.994263,1044.244385 331.190735,1042.338745 346.750153,1032.395752   C353.888336,1027.834229 359.746979,1021.270447 366.488495,1015.348877   C377.293488,1024.100098 390.139435,1030.030762 405.377258,1030.174316   C420.427673,1030.316040 433.759308,1025.705322 445.513763,1016.652527   C458.579346,1028.614014 477.547699,1031.463501 498.090302,1013.948853   C506.729797,1022.140930 517.347473,1023.763855 528.650940,1022.686157   C539.923096,1021.611389 549.598389,1016.695496 558.014709,1009.449463   C569.440735,1020.543579 584.219727,1023.028503 596.111572,1015.131348   C601.545044,1011.523071 606.063232,1006.352539 610.452942,1001.407959   C614.929932,996.365234 618.739929,990.730408 623.017273,985.124878   C631.342041,992.891968 641.057007,994.970886 651.559875,993.827942   C654.662842,993.490234 656.195984,994.288513 657.785339,996.986816   C664.362427,1008.152649 674.326294,1013.504456 687.295166,1013.015320   C698.001831,1012.611572 706.623779,1007.483765 714.418091,1000.450073   C722.838806,1008.638245 733.119080,1010.383789 744.097229,1009.537415   C755.204590,1008.681152 764.883484,1004.177795 773.332581,997.215393   C789.830261,1010.472534 805.341187,1009.327637 827.494873,993.445129   C836.230042,1000.761353 846.209717,1003.954590 857.609314,1002.459778   C868.751587,1000.998657 877.872253,995.484253 885.855225,988.127136   C886.477173,988.492798 886.801758,988.610657 887.030945,988.828735   C904.842346,1005.786987 943.943054,1000.939514 955.647339,978.924133   C956.251770,977.787231 958.464783,977.040283 959.983704,976.939758   C965.115601,976.599915 970.430359,977.406494 975.392334,976.391846   C998.100159,971.748596 1011.214966,956.768677 1017.958923,935.409058   C1020.641296,926.913452 1023.067200,918.336914 1025.575439,909.912903   C1040.011353,911.596130 1041.657837,917.262329 1038.208740,926.901855   C1035.524536,934.403503 1033.494629,942.159607 1031.521362,949.891296   C1025.733521,972.567993 1040.262573,990.914612 1063.183105,989.920654   C1073.436157,989.476074 1082.004883,984.906006 1089.709351,978.215881   C1108.079956,992.473389 1125.047363,988.066711 1141.197876,974.378113   C1157.821289,987.939148 1175.618164,986.635071 1200.611694,970.664246   C1207.767944,973.298645 1214.140137,976.210815 1220.815430,977.979248   C1233.238037,981.270203 1245.901611,980.443420 1258.541870,978.959351   C1293.019775,974.911621 1317.993530,953.570374 1327.346802,920.205933   C1328.431030,916.338257 1327.545410,913.293640 1324.798218,910.694580   C1317.740356,904.017395 1306.125732,906.437378 1302.286255,915.339294   C1300.772583,918.848694 1299.530029,922.494202 1297.777466,925.877563   C1294.174072,932.833923 1289.319214,938.740723 1281.842896,943.643982   C1283.581909,929.015259 1277.296875,917.948425 1270.295654,907.066772   C1266.429443,901.057739 1262.822144,894.878174 1259.224976,888.701599   C1257.569336,885.858582 1257.648315,883.705627 1260.766602,881.154358   C1266.315796,876.614319 1268.432495,870.403381 1266.032715,863.210754   C1263.740601,856.340881 1258.097290,852.008850 1250.789429,851.467896   C1242.231201,850.834351 1233.917847,855.749451 1229.964966,864.234192   C1223.292358,878.556519 1216.903687,893.011230 1210.213379,907.325195   C1209.308472,909.261536 1207.574951,911.000061 1205.840332,912.327454   C1196.747681,919.286072 1189.839478,927.823486 1189.246094,939.568787   C1188.770264,948.987610 1183.098755,953.621948 1175.745483,956.835754   C1172.924072,958.068848 1168.574707,958.201355 1166.042358,956.804077   C1164.517944,955.963013 1165.046997,951.213928 1164.873169,948.208374   C1164.809082,947.099304 1165.347778,945.946228 1165.657959,944.826050   C1171.515381,923.667358 1177.428589,902.523865 1183.189819,881.339050   C1184.051025,878.172607 1184.772461,874.777161 1184.562256,871.552612   C1184.195435,865.929749 1180.972534,861.958130 1175.551270,860.104187   C1168.573853,857.718018 1162.095825,859.199402 1157.156738,864.364380   C1154.409424,867.237488 1152.477173,867.116516 1149.149780,865.993713   C1127.485596,858.682983 1102.719482,867.156250 1096.586304,893.249573   C1092.518433,910.555298 1087.308716,927.615906 1081.980347,944.588440   C1080.294067,949.960083 1076.974731,954.981262 1073.646484,959.620300   C1071.297485,962.894470 1067.592896,966.554260 1063.140381,964.263184   C1058.392334,961.819885 1060.372681,957.004578 1061.468384,953.046936   C1064.751831,941.188477 1068.509033,929.450012 1071.430298,917.505554   C1074.366211,905.500244 1070.863770,896.316833 1060.268311,890.121582   C1052.208130,885.408752 1043.236572,882.254517 1034.250977,878.218445   C1034.250977,878.434631 1034.232422,877.784180 1034.253662,877.135010   C1034.561523,867.741577 1029.102905,860.196838 1020.547485,858.199280   C1011.978394,856.198608 1003.402039,860.465759 999.645447,868.894592   C995.931213,877.228516 996.594177,885.327332 1001.211609,893.271423   C1002.208862,894.987061 1002.615906,897.614807 1002.127808,899.524048   C1000.234741,906.929688 998.312378,914.385681 995.562561,921.498779   C992.600220,929.161682 989.490723,936.988953 984.977905,943.767517   C980.687195,950.212463 973.526123,952.900146 965.027710,952.071289   C965.027710,949.291077 964.045654,946.161743 965.192261,944.682495   C971.178833,936.959412 972.990417,927.785339 974.740051,918.692566   C977.896423,902.288940 972.076050,888.941528 959.143616,881.312744   C934.919556,867.023315 899.638245,880.130249 891.221741,906.897034   C886.184998,922.915222 881.871765,939.164795 877.429260,955.364136   C875.268127,963.244446 870.835022,969.506226 864.523315,974.390259   C860.948547,977.156433 856.654785,979.673584 852.175232,976.541809   C847.859619,973.524475 849.680969,969.095093 850.787903,965.107727   C859.997070,931.933960 869.241882,898.770020 878.463135,865.599609   C880.913208,856.786072 883.600891,848.026001 885.675049,839.123779   C888.314819,827.793823 879.907410,818.796387 869.154907,821.248169   C862.432678,822.780945 858.951355,827.944702 856.948975,834.008972   C854.395691,841.741577 852.266479,849.615295 850.005859,857.443115   C846.742065,868.744690 843.524353,880.059631 840.172852,891.767334   C839.021790,890.988281 838.358887,890.567810 837.725525,890.106750   C817.778687,875.588806 790.913391,883.901184 782.635986,907.207336   C781.302490,910.961975 780.312500,914.838623 779.005798,919.459290  M797.966431,469.452118   C765.086914,464.244324 733.050415,468.169189 702.387695,480.442688   C626.672180,510.749451 580.920532,585.490540 588.372986,667.671387   C591.909302,706.667664 607.219177,741.062256 632.930054,770.892639   C679.688049,825.142334 760.049622,847.130127 827.637085,823.854187   C830.906128,822.728333 832.763062,820.927185 834.248779,817.846497   C842.329163,801.091248 855.870850,792.634216 874.386841,794.192444   C881.382935,794.781250 886.113098,792.896240 890.478638,788.187500   C891.041260,787.580688 891.746582,787.108582 892.364807,786.550720   C928.090027,754.312744 948.072693,713.998413 952.675903,666.325256   C955.264648,639.514771 952.107788,613.066711 942.296997,587.781921   C916.613098,521.588257 868.520081,482.457458 797.966431,469.452118  M1144.687622,630.809387   C1130.172485,615.441956 1112.315918,607.331116 1091.257812,605.966614   C1087.692993,605.735657 1086.458740,606.840149 1085.848267,610.428833   C1081.978638,633.183777 1077.856445,655.896179 1073.749756,678.610413   C1064.237183,731.225342 1054.655762,783.828003 1045.275635,836.466492   C1044.944336,838.325684 1046.035645,840.801086 1047.191040,842.492676   C1050.360107,847.132812 1053.912354,851.511475 1057.323853,855.985291   C1058.104980,857.009705 1058.723633,858.397339 1059.769043,858.941162   C1065.606201,861.977417 1071.551514,864.805786 1077.431885,867.691467   C1079.080078,865.321289 1080.536377,862.879211 1082.324341,860.710449   C1098.020386,841.670593 1118.378296,834.347290 1142.646851,836.652466   C1145.311401,836.905579 1148.263306,836.471375 1150.781982,835.542847   C1165.906250,829.966980 1180.540649,830.129272 1194.204712,839.346191   C1198.625610,842.328308 1202.298340,846.419617 1206.359375,850.044739   C1218.186646,828.158813 1237.345459,822.001343 1261.018311,825.087769   C1260.928467,801.615234 1254.815430,780.368164 1242.446167,760.937439   C1223.516479,731.201416 1195.966797,714.114319 1161.902100,706.755554   C1169.070923,678.529419 1164.388794,653.297729 1144.687622,630.809387  M389.757538,679.223755   C320.520782,704.697327 297.844360,777.509888 316.780121,828.941406   C335.639404,825.038208 354.055817,826.370972 371.861969,834.252319   C372.849152,834.689209 374.718262,834.043762 375.758850,833.309570   C386.740601,825.561768 398.964417,821.394531 412.219116,819.455322   C440.641144,815.297302 468.279785,830.742737 478.898254,857.464050   C481.202118,863.261719 482.423248,869.489624 484.227020,875.813843   C489.570007,875.813843 495.159027,875.813843 501.252563,875.813843   C483.000580,774.361328 464.799011,673.188904 446.513092,571.547607   C430.482117,577.082947 418.248383,586.666565 409.087250,600.054260   C392.900024,623.709534 391.332092,649.085938 401.429810,675.468323   C397.460754,676.760437 393.990509,677.890198 389.757538,679.223755  M738.700134,1124.982178   C738.573364,1127.828003 738.446655,1130.673706 738.263428,1134.786865   C734.814575,1130.340454 732.287292,1127.075928 729.753235,1123.816528   C724.743591,1117.372925 720.024963,1110.663574 714.544495,1104.648804   C712.830566,1102.767700 708.913269,1101.827515 706.280090,1102.235474   C704.602295,1102.495361 702.304749,1105.978027 702.213928,1108.098389   C701.579346,1122.911621 701.360779,1137.745728 701.206055,1152.575073   C701.155518,1157.413452 703.770569,1159.795410 708.258118,1159.774780   C712.664124,1159.754395 714.847412,1157.426514 715.003235,1152.337646   C715.207275,1145.675537 715.273865,1139.009277 715.452881,1132.346313   C715.489014,1131.002563 715.763550,1129.665161 716.039124,1127.421265   C720.532776,1133.237061 724.374329,1138.223267 728.231506,1143.197021   C731.906433,1147.936035 735.231934,1153.030029 739.449097,1157.226074   C741.323547,1159.091064 745.082214,1159.930786 747.847717,1159.684814   C749.350769,1159.551270 751.658264,1156.208252 751.735229,1154.239868   C752.327698,1139.091064 752.561218,1123.925049 752.676270,1108.762573   C752.709290,1104.413330 750.069031,1102.039307 745.625916,1102.106689   C741.122131,1102.175049 739.009949,1104.637695 738.965881,1109.070557   C738.916199,1114.069580 738.806702,1119.067993 738.700134,1124.982178  M897.412170,1134.157959   C892.835266,1128.231812 888.277344,1122.290771 883.673950,1116.385132   C881.117981,1113.106201 878.866028,1109.433594 875.742920,1106.813477   C873.933655,1105.295532 870.427246,1104.624023 868.135620,1105.242554   C866.404846,1105.709595 864.306885,1108.781860 864.227051,1110.769165   C863.618530,1125.900879 863.356140,1141.050171 863.241150,1156.195923   C863.207764,1160.595459 866.056458,1162.916992 870.366638,1162.757690   C874.494446,1162.605225 876.873657,1160.497314 876.983276,1156.239624   C877.167542,1149.084473 877.273376,1141.927124 877.469299,1134.772339   C877.501038,1133.612915 877.827759,1132.461670 878.139954,1130.566772   C886.024231,1140.744385 893.369629,1150.176270 900.652771,1159.656006   C903.059448,1162.788574 906.186218,1164.035278 909.875977,1162.936035   C913.590210,1161.829346 913.920715,1158.557495 913.976379,1155.239624   C914.199585,1141.924927 914.489319,1128.611206 914.725647,1115.296753   C914.755127,1113.639160 914.829102,1111.935059 914.506897,1110.327759   C913.717590,1106.390503 910.965820,1104.905396 907.177917,1105.117188   C903.494080,1105.323364 901.204834,1107.246338 901.052490,1111.011597   C900.790161,1117.496948 900.753174,1123.991089 900.585999,1130.480713   C900.534058,1132.498413 900.367310,1134.513184 900.195435,1137.549316   C898.888489,1135.960571 898.382935,1135.345947 897.412170,1134.157959  M637.994751,1154.611206   C641.552734,1155.926880 645.012207,1157.730957 648.686035,1158.472412   C663.559326,1161.473633 677.213379,1153.670532 681.554749,1140.021729   C686.378540,1124.855957 680.532227,1109.282837 667.749756,1103.248291   C654.062256,1096.786499 636.980225,1101.205933 629.699341,1113.092651   C621.544434,1126.406250 625.021240,1144.938354 637.994751,1154.611206  M953.611572,1163.549194   C958.270996,1163.640137 962.931519,1163.693481 967.589478,1163.833374   C971.559387,1163.952393 974.572021,1162.861938 974.858887,1158.275146   C975.113281,1154.207642 972.848389,1152.226196 967.664490,1152.148560   C961.366821,1152.054077 955.066650,1152.126221 948.936890,1152.126221   C948.936890,1147.773071 948.936890,1144.081665 948.936890,1140.705933   C955.169128,1140.705933 960.823303,1140.667603 966.476562,1140.718994   C970.513367,1140.755615 973.413940,1139.468018 973.432434,1134.875122   C973.450989,1130.270996 970.576477,1128.983032 966.518311,1129.029663   C960.743225,1129.096069 954.966858,1129.046509 949.115845,1129.046509   C949.115845,1124.996216 949.115845,1121.744019 949.115845,1118.276123   C954.162476,1118.276123 958.945984,1118.269775 963.729492,1118.278809   C966.057312,1118.283203 968.391907,1118.436768 970.711426,1118.308105   C974.244568,1118.112305 975.646606,1115.737915 975.648987,1112.579956   C975.651428,1109.339966 974.026306,1107.133301 970.544434,1107.038330   C961.061890,1106.779785 951.576843,1106.495361 942.092285,1106.477173   C937.645081,1106.468628 934.906311,1108.805542 934.815552,1113.553467   C934.545349,1127.697388 934.231018,1141.840820 934.050598,1155.985962   C933.991577,1160.614624 936.533447,1163.009155 941.168701,1163.154541   C944.994812,1163.274658 948.820801,1163.399048 953.611572,1163.549194  M791.583435,1160.557983   C795.914062,1160.641968 800.244446,1160.782593 804.575317,1160.795410   C809.940186,1160.811279 812.483276,1158.861206 812.650635,1154.762573   C812.823914,1150.521240 810.188782,1148.308838 804.537537,1148.213867   C798.760254,1148.116821 792.980042,1148.192505 787.271484,1148.192505   C787.271484,1135.512085 787.309998,1123.554077 787.254211,1111.596558   C787.228699,1106.125732 784.838196,1103.456177 780.109070,1103.305054   C775.467041,1103.156494 772.564453,1105.801270 772.431213,1111.171021   C772.084106,1125.159180 771.978455,1139.154175 771.867432,1153.147217   C771.832458,1157.552124 774.216614,1159.932861 778.625732,1160.135986   C782.619202,1160.320068 786.617188,1160.404663 791.583435,1160.557983  M839.480225,1161.284668   C843.274231,1159.625732 843.335510,1156.172363 843.399353,1152.836548   C843.657288,1139.375488 843.877747,1125.913452 844.022644,1112.450684   C844.088135,1106.371704 841.980164,1103.947021 836.887573,1103.836304   C831.642578,1103.722290 829.255920,1106.302612 829.130127,1112.497192   C828.860168,1125.791626 828.636108,1139.087036 828.459473,1152.382935   C828.355103,1160.241699 830.882568,1162.455566 839.480225,1161.284668  M593.118835,1151.938721   C594.243347,1155.810181 597.040955,1158.093384 600.827271,1157.586060   C603.284424,1157.256714 606.819763,1155.558960 607.496277,1153.637817   C608.431335,1150.982422 608.143372,1146.713135 606.485168,1144.678711   C604.990540,1142.844727 600.776794,1142.147949 598.065613,1142.635620   C593.926941,1143.380127 592.600525,1147.038086 593.118835,1151.938721  M773.433838,870.030518   C776.846436,868.507385 780.258972,866.984253 783.671509,865.461182   C783.496277,865.080750 783.320984,864.700317 783.145752,864.319885   C777.710449,864.319885 772.275146,864.319885 765.948853,864.319885   C768.746765,866.437683 770.819397,868.006470 773.433838,870.030518  z"></path><path fill="#07579F" stroke="none" d=" M1228.904907,411.995178   C1228.904907,417.130524 1228.904907,421.766815 1228.904907,426.704834   C1225.514648,426.704834 1222.449463,426.704834 1219.061523,426.704834   C1219.061523,413.748627 1219.061523,400.819977 1219.061523,387.891296   C1218.661255,387.817810 1218.260986,387.744354 1217.860718,387.670868   C1214.907837,400.623871 1211.955078,413.576843 1208.951172,426.753845   C1205.443604,426.753845 1202.026489,426.753845 1198.313354,426.753845   C1195.431641,413.678680 1192.556030,400.631042 1189.680420,387.583405   C1189.404907,387.618591 1189.129517,387.653778 1188.854004,387.688965   C1188.854004,400.616943 1188.854004,413.544922 1188.854004,426.739807   C1185.407349,426.739807 1182.313965,426.739807 1178.985352,426.739807   C1178.985352,409.787231 1178.985352,392.856476 1178.985352,375.223419   C1183.470459,375.223419 1187.898193,375.025299 1192.283447,375.369598   C1193.316284,375.450684 1194.770874,377.221436 1195.072998,378.450439   C1197.958496,390.193298 1200.637573,401.986816 1204.346436,413.921387   C1207.296143,401.106537 1210.245972,388.291687 1213.200928,375.454285   C1218.445679,375.454285 1223.385742,375.454285 1228.904907,375.454285   C1228.904907,387.621613 1228.904907,399.558868 1228.904907,411.995178  z"></path><path fill="#0958A0" stroke="none" d=" M1163.014648,384.525452   C1160.909302,384.525299 1159.284302,384.525299 1157.315186,384.525299   C1157.315186,398.778564 1157.315186,412.537720 1157.315186,426.656342   C1153.596558,426.656342 1150.216431,426.656342 1146.268799,426.656342   C1146.268799,412.777222 1146.268799,398.898071 1146.268799,384.646088   C1140.957275,384.646088 1136.192627,384.646088 1131.108887,384.646088   C1131.108887,381.368134 1131.108887,378.473022 1131.108887,375.391357   C1144.891113,375.391357 1158.481934,375.391357 1172.480713,375.391357   C1172.480713,378.195648 1172.480713,380.916779 1172.480713,384.525604   C1169.620850,384.525604 1166.557983,384.525604 1163.014648,384.525452  z"></path><path fill="#1995ED" stroke="none" d=" M984.073975,635.070923   C981.591370,600.479858 971.065857,568.490662 953.263611,538.773010   C944.492371,524.131042 933.980652,510.814240 921.980408,498.844025   C900.187073,477.105316 874.866455,460.575836 845.867981,449.834320   C826.298035,442.585236 806.206482,438.345581 785.342163,436.839447   C738.679993,433.471008 695.786499,444.560150 656.283447,469.213165   C623.980164,489.372955 599.266846,516.601501 581.291626,550.157471   C569.390198,572.374878 562.251343,596.057861 558.175415,620.772644   C557.449219,625.175720 557.360168,629.683960 556.675842,634.889771   C556.247864,642.370056 556.001160,649.104980 556.044434,655.838013   C556.066040,659.207336 556.616638,662.573242 556.927979,665.940735   C558.562256,689.335205 564.178833,711.788208 573.211121,733.376526   C585.137390,761.881836 602.420166,786.792725 625.263123,807.544800   C653.591736,833.280579 686.298706,851.012024 723.972412,859.023682   C724.618469,859.161194 725.278564,859.275269 725.892761,859.505310   C726.340149,859.672974 726.722534,860.014038 727.133911,860.277771   C727.156921,860.770691 727.179993,861.263611 727.203064,861.756531   C722.275635,862.125854 717.279724,863.201172 712.433716,862.731079   C698.331665,861.363098 685.473633,864.785400 673.265747,871.472107   C671.517151,872.429993 669.962219,873.877441 668.115784,874.479370   C666.549377,874.990112 664.259338,875.292480 663.027405,874.516113   C644.841553,863.056885 626.773254,864.533203 608.858948,874.893921   C605.933777,876.585693 604.052490,876.820862 600.865906,875.161560   C584.115723,866.439758 568.190674,869.044678 553.691467,879.218811   C547.195190,876.727295 540.987671,874.500610 534.938354,871.905273   C533.621582,871.340393 532.228271,869.579407 531.957153,868.161438   C528.844360,851.885254 525.938171,835.569519 522.983826,819.263062   C516.395264,782.898438 509.782257,746.538269 503.232544,710.166626   C496.799835,674.444885 490.460266,638.706421 484.029297,602.984375   C477.774750,568.242126 471.449219,533.512756 465.168213,498.775238   C461.511627,478.552216 457.804260,458.337982 454.259338,438.095337   C450.035889,413.977997 468.775665,396.791046 487.790833,396.814789   C675.587036,397.049438 863.383850,397.074280 1051.179932,396.784393   C1071.463013,396.753052 1089.995728,416.140045 1084.914795,440.556885   C1077.692261,475.264923 1072.209229,510.333740 1065.901489,545.233643   C1061.126343,571.654602 1056.155518,598.040161 1051.395752,624.463867   C1045.842773,655.290833 1040.466675,686.149719 1034.934692,716.980530   C1030.485474,741.776245 1025.913452,766.549866 1021.405762,791.335083   C1019.270569,803.075867 1017.266235,814.842529 1014.911682,826.538879   C1014.584106,828.166382 1012.696472,830.595459 1011.339722,830.730530   C994.709900,832.385803 983.639160,841.731628 975.704773,855.675537   C975.298340,856.389771 974.838806,857.073792 974.091675,858.273254   C954.280762,846.777283 933.363281,845.556519 911.006592,852.665222   C911.810547,847.297852 913.049561,842.965759 912.963501,838.660156   C912.840027,832.480652 912.569153,826.075012 910.817200,820.228638   C909.386963,815.455994 909.464050,813.093201 913.549744,809.471802   C930.198364,794.714905 944.080566,777.536865 955.332275,758.276733   C967.433655,737.562073 975.828247,715.432190 980.400574,691.914917   C982.072144,683.317932 982.842102,674.545654 984.323792,665.107300   C984.751465,658.291260 985.014954,652.219849 984.955322,646.151672   C984.919006,642.455566 984.384644,638.764343 984.073975,635.070923  M994.468933,427.952209   C987.835022,427.628601 981.715881,429.094818 975.878906,432.428070   C963.400696,439.553833 957.396423,450.679443 957.408081,464.479279   C957.419006,477.468872 963.075867,488.281891 974.545166,495.259094   C987.926453,503.399384 1001.558533,503.205688 1014.468201,494.606323   C1027.042847,486.230042 1032.039673,473.980011 1030.093384,458.924805   C1027.807251,441.239868 1013.261230,428.209961 994.468933,427.952209  M584.026855,436.146729   C561.227478,436.138824 538.427490,436.031464 515.628967,436.164551   C504.060059,436.232056 496.229462,443.165192 496.005127,453.003967   C495.785858,462.620239 503.100372,470.761719 512.938293,470.856842   C537.233215,471.091705 561.533447,471.086365 585.828491,470.857788   C596.195068,470.760284 603.604980,461.443024 602.092285,451.285278   C600.790222,442.541718 596.509705,438.790588 584.026855,436.146729  z"></path><path fill="#FDFEFE" stroke="none" d=" M779.084778,919.059082   C780.312500,914.838623 781.302490,910.961975 782.635986,907.207336   C790.913391,883.901184 817.778687,875.588806 837.725525,890.106750   C838.358887,890.567810 839.021790,890.988281 840.172852,891.767334   C843.524353,880.059631 846.742065,868.744690 850.005859,857.443115   C852.266479,849.615295 854.395691,841.741577 856.948975,834.008972   C858.951355,827.944702 862.432678,822.780945 869.154907,821.248169   C879.907410,818.796387 888.314819,827.793823 885.675049,839.123779   C883.600891,848.026001 880.913208,856.786072 878.463135,865.599609   C869.241882,898.770020 859.997070,931.933960 850.787903,965.107727   C849.680969,969.095093 847.859619,973.524475 852.175232,976.541809   C856.654785,979.673584 860.948547,977.156433 864.523315,974.390259   C870.835022,969.506226 875.268127,963.244446 877.429260,955.364136   C881.871765,939.164795 886.184998,922.915222 891.221741,906.897034   C899.638245,880.130249 934.919556,867.023315 959.143616,881.312744   C972.076050,888.941528 977.896423,902.288940 974.740051,918.692566   C972.990417,927.785339 971.178833,936.959412 965.192261,944.682495   C964.045654,946.161743 965.027710,949.291077 965.027710,952.071289   C973.526123,952.900146 980.687195,950.212463 984.977905,943.767517   C989.490723,936.988953 992.600220,929.161682 995.562561,921.498779   C998.312378,914.385681 1000.234741,906.929688 1002.127808,899.524048   C1002.615906,897.614807 1002.208862,894.987061 1001.211609,893.271423   C996.594177,885.327332 995.931213,877.228516 999.645447,868.894592   C1003.402039,860.465759 1011.978394,856.198608 1020.547485,858.199280   C1029.102905,860.196838 1034.561523,867.741577 1034.253662,877.135010   C1034.232422,877.784180 1034.250977,878.434631 1034.250977,878.218445   C1043.236572,882.254517 1052.208130,885.408752 1060.268311,890.121582   C1070.863770,896.316833 1074.366211,905.500244 1071.430298,917.505554   C1068.509033,929.450012 1064.751831,941.188477 1061.468384,953.046936   C1060.372681,957.004578 1058.392334,961.819885 1063.140381,964.263184   C1067.592896,966.554260 1071.297485,962.894470 1073.646484,959.620300   C1076.974731,954.981262 1080.294067,949.960083 1081.980347,944.588440   C1087.308716,927.615906 1092.518433,910.555298 1096.586304,893.249573   C1102.719482,867.156250 1127.485596,858.682983 1149.149780,865.993713   C1152.477173,867.116516 1154.409424,867.237488 1157.156738,864.364380   C1162.095825,859.199402 1168.573853,857.718018 1175.551270,860.104187   C1180.972534,861.958130 1184.195435,865.929749 1184.562256,871.552612   C1184.772461,874.777161 1184.051025,878.172607 1183.189819,881.339050   C1177.428589,902.523865 1171.515381,923.667358 1165.657959,944.826050   C1165.347778,945.946228 1164.809082,947.099304 1164.873169,948.208374   C1165.046997,951.213928 1164.517944,955.963013 1166.042358,956.804077   C1168.574707,958.201355 1172.924072,958.068848 1175.745483,956.835754   C1183.098755,953.621948 1188.770264,948.987610 1189.246094,939.568787   C1189.839478,927.823486 1196.747681,919.286072 1205.840332,912.327454   C1207.574951,911.000061 1209.308472,909.261536 1210.213379,907.325195   C1216.903687,893.011230 1223.292358,878.556519 1229.964966,864.234192   C1233.917847,855.749451 1242.231201,850.834351 1250.789429,851.467896   C1258.097290,852.008850 1263.740601,856.340881 1266.032715,863.210754   C1268.432495,870.403381 1266.315796,876.614319 1260.766602,881.154358   C1257.648315,883.705627 1257.569336,885.858582 1259.224976,888.701599   C1262.822144,894.878174 1266.429443,901.057739 1270.295654,907.066772   C1277.296875,917.948425 1283.581909,929.015259 1281.842896,943.643982   C1289.319214,938.740723 1294.174072,932.833923 1297.777466,925.877563   C1299.530029,922.494202 1300.772583,918.848694 1302.286255,915.339294   C1306.125732,906.437378 1317.740356,904.017395 1324.798218,910.694580   C1327.545410,913.293640 1328.431030,916.338257 1327.346802,920.205933   C1317.993530,953.570374 1293.019775,974.911621 1258.541870,978.959351   C1245.901611,980.443420 1233.238037,981.270203 1220.815430,977.979248   C1214.140137,976.210815 1207.767944,973.298645 1200.611694,970.664246   C1175.618164,986.635071 1157.821289,987.939148 1141.197876,974.378113   C1125.047363,988.066711 1108.079956,992.473389 1089.709351,978.215881   C1082.004883,984.906006 1073.436157,989.476074 1063.183105,989.920654   C1040.262573,990.914612 1025.733521,972.567993 1031.521362,949.891296   C1033.494629,942.159607 1035.524536,934.403503 1038.208740,926.901855   C1041.657837,917.262329 1040.011353,911.596130 1025.575439,909.912903   C1023.067200,918.336914 1020.641296,926.913452 1017.958923,935.409058   C1011.214966,956.768677 998.100159,971.748596 975.392334,976.391846   C970.430359,977.406494 965.115601,976.599915 959.983704,976.939758   C958.464783,977.040283 956.251770,977.787231 955.647339,978.924133   C943.943054,1000.939514 904.842346,1005.786987 887.030945,988.828735   C886.801758,988.610657 886.477173,988.492798 885.855225,988.127136   C877.872253,995.484253 868.751587,1000.998657 857.609314,1002.459778   C846.209717,1003.954590 836.230042,1000.761353 827.494873,993.445129   C805.341187,1009.327637 789.830261,1010.472534 773.332581,997.215393   C764.883484,1004.177795 755.204590,1008.681152 744.097229,1009.537415   C733.119080,1010.383789 722.838806,1008.638245 714.418091,1000.450073   C706.623779,1007.483765 698.001831,1012.611572 687.295166,1013.015320   C674.326294,1013.504456 664.362427,1008.152649 657.785339,996.986816   C656.195984,994.288513 654.662842,993.490234 651.559875,993.827942   C641.057007,994.970886 631.342041,992.891968 623.017273,985.124878   C618.739929,990.730408 614.929932,996.365234 610.452942,1001.407959   C606.063232,1006.352539 601.545044,1011.523071 596.111572,1015.131348   C584.219727,1023.028503 569.440735,1020.543579 558.014709,1009.449463   C549.598389,1016.695496 539.923096,1021.611389 528.650940,1022.686157   C517.347473,1023.763855 506.729797,1022.140930 498.090302,1013.948853   C477.547699,1031.463501 458.579346,1028.614014 445.513763,1016.652527   C433.759308,1025.705322 420.427673,1030.316040 405.377258,1030.174316   C390.139435,1030.030762 377.293488,1024.100098 366.488495,1015.348877   C359.746979,1021.270447 353.888336,1027.834229 346.750153,1032.395752   C331.190735,1042.338745 313.994263,1044.244385 296.422089,1038.571045   C282.716797,1034.146362 272.842773,1025.229126 270.153137,1010.501038   C267.195831,994.307190 271.868103,980.124695 284.961121,969.973633   C302.627197,956.277161 322.275330,954.451172 342.917908,962.851746   C344.456329,963.477783 345.963776,964.179688 347.494171,964.826172   C347.617279,964.878174 347.806641,964.773315 348.536682,964.626343   C350.427917,957.910889 352.388550,950.930054 354.360138,943.952393   C358.294281,930.028809 362.263733,916.115051 366.123077,902.170776   C366.475800,900.896301 366.726715,898.773804 366.033569,898.154297   C357.507263,890.533691 348.440186,883.891479 336.431427,882.891541   C326.357117,882.052612 318.783478,886.553162 312.318146,893.657166   C308.688538,897.645325 304.649597,900.642944 298.803711,899.243835   C288.532288,896.785461 284.276886,884.921753 290.606842,876.325806   C301.336426,861.755005 316.001434,854.829163 333.860413,854.063232   C348.810669,853.422058 362.031158,858.059814 373.889648,866.965515   C375.197021,867.947388 376.498688,868.936951 378.173828,870.203369   C384.051117,861.383972 391.325073,854.448975 400.965302,850.440369   C409.387390,846.938293 418.174011,844.892700 427.298004,846.521057   C443.645508,849.438660 454.137512,861.437439 456.553741,879.436279   C459.864960,904.101868 439.568420,927.730225 415.542175,926.912598   C411.975189,926.791199 408.344513,925.668335 404.940674,924.455017   C401.684631,923.294495 398.685760,921.412292 395.146820,919.632446   C394.700714,920.845032 394.184906,921.982666 393.859009,923.172363   C388.805634,941.619812 383.873352,960.101501 378.647919,978.499878   C377.773102,981.579895 378.199615,983.443115 380.678314,985.312378   C384.927338,988.516541 388.775757,992.300293 393.211487,995.199402   C405.814209,1003.436218 423.044250,1001.726990 433.612762,991.022949   C436.395996,988.203979 438.690643,984.356201 439.839691,980.565613   C444.615112,964.811584 449.309296,949.007019 453.215454,933.021118   C460.551147,903.000305 488.765533,898.728882 507.532593,905.972778   C508.458466,906.330139 509.380127,906.698425 510.537384,907.153503   C511.293884,906.355591 512.081604,905.545349 512.846802,904.714355   C518.375854,898.709595 527.538757,896.893250 534.299866,900.467407   C540.628174,903.812744 542.871033,910.260071 540.482300,919.152405   C537.246277,931.198792 533.808350,943.190735 530.477844,955.211792   C527.502380,965.951294 524.314636,976.641785 521.756165,987.480347   C521.074341,990.368774 521.270325,995.013123 523.040344,996.503296   C524.871704,998.045166 529.374756,997.508301 532.237549,996.517700   C539.727112,993.926147 544.266113,987.815186 547.930054,981.138000   C553.696716,970.628845 556.270203,959.134033 558.023621,947.391663   C559.695190,936.197510 561.496948,925.022339 563.318481,913.851440   C563.637512,911.895203 564.155884,909.928284 564.892700,908.090820   C568.102905,900.084778 576.747192,895.715271 584.802124,897.911011   C592.062317,899.890137 596.089478,906.881165 594.704529,915.757812   C593.113892,925.952759 591.215332,936.099487 589.474304,946.271240   C587.171875,959.723145 584.856201,973.173096 582.645386,986.640137   C582.340393,988.497986 582.603394,990.449036 583.752319,993.015076   C585.715149,991.189209 588.129028,989.660034 589.560242,987.484436   C594.859070,979.429688 599.896484,971.199280 604.849792,962.925598   C605.468994,961.891235 605.329712,960.114868 604.983215,958.833313   C599.254822,937.646790 604.411072,918.970703 618.340515,902.578003   C623.116516,896.957458 629.546631,893.806335 637.279602,893.956665   C647.416565,894.153687 654.121277,900.545532 653.590698,911.273926   C653.286377,917.427490 651.376770,923.692566 649.157532,929.513916   C646.143860,937.419312 642.048889,944.906555 638.599060,952.653931   C636.508118,957.349487 636.193726,962.200500 640.094910,966.141724   C643.699463,969.783264 648.430176,969.880676 652.603271,967.638550   C654.925598,966.390930 657.215393,963.701050 657.992188,961.188721   C662.167053,947.686340 666.518127,934.181763 669.587463,920.406006   C676.124695,891.065552 703.962219,884.848755 724.843933,893.023010   C725.604614,893.320801 726.374695,893.594666 726.660706,892.797302   C730.905518,890.459412 734.899109,887.179688 739.444092,885.967285   C751.183167,882.836121 760.381714,891.880127 757.397461,903.646301   C752.777954,921.859741 747.476501,939.899536 742.526733,958.030090   C740.820435,964.280273 738.905029,970.513000 737.804565,976.878113   C736.640991,983.608582 739.579895,986.063538 746.149353,984.163391   C757.515564,980.875793 763.541321,972.185852 766.876038,961.656738   C771.293396,947.709412 774.996033,933.535706 779.084778,919.059082  M916.811584,921.218506   C913.543640,932.715820 910.068604,944.160522 907.126953,955.740784   C906.174622,959.489929 906.209106,963.630127 906.547485,967.525940   C906.864014,971.169250 909.523132,973.338684 913.191345,973.985107   C921.318054,975.417236 928.656616,970.508728 930.636536,962.343018   C923.051025,955.348755 920.971313,949.754089 923.416687,941.667236   C926.299255,932.134521 933.145325,927.423889 942.771606,926.747314   C943.419373,924.047180 944.065918,921.643555 944.560852,919.209167   C945.090027,916.606750 945.705750,913.990295 945.879883,911.353394   C946.335815,904.449219 941.716003,899.682129 934.928772,900.322937   C927.806213,900.995361 922.303406,904.368042 919.696350,911.373230   C918.599426,914.320618 917.868896,917.404236 916.811584,921.218506  M716.310547,919.287659   C711.352478,914.758972 706.769653,914.921570 702.745789,920.017395   C701.325867,921.815552 699.939270,923.899292 699.372192,926.070618   C694.920288,943.116638 690.558594,960.188599 686.450745,977.320129   C685.590515,980.907593 685.885071,985.587585 689.831482,986.811279   C692.792175,987.729248 697.101318,986.803345 699.913147,985.161926   C705.356750,981.984131 707.490784,976.095947 709.030090,970.211487   C711.975098,958.953796 714.914978,947.692505 717.641968,936.380859   C718.969971,930.872192 720.078186,925.232361 716.310547,919.287659  M1119.167969,925.739319   C1118.891235,926.868286 1118.598755,927.993713 1118.339966,929.126770   C1116.566772,936.890381 1114.389526,944.596802 1113.265015,952.453674   C1112.895020,955.038086 1114.520996,959.237671 1116.572510,960.468689   C1118.663208,961.723267 1122.760742,961.000366 1125.342041,959.786865   C1130.778564,957.230774 1133.464722,952.011963 1134.975830,946.446289   C1138.412598,933.787109 1141.784302,921.101196 1144.714233,908.318848   C1145.576050,904.559204 1145.615234,900.260132 1144.718872,896.523132   C1142.958618,889.185242 1135.026733,887.383118 1130.178345,893.184753   C1127.816284,896.011292 1126.177246,899.700623 1125.074341,903.266479   C1122.868652,910.397644 1121.257568,917.712891 1119.167969,925.739319  M479.587738,951.028015   C476.763123,962.135132 473.885437,973.229187 471.151947,984.358704   C470.483093,987.081970 469.973206,989.916687 469.932648,992.707947   C469.823303,1000.239075 474.808167,1003.241638 481.533508,999.776855   C487.274963,996.819031 490.229279,991.575623 491.826691,985.683289   C495.302948,972.860352 498.514984,959.964111 501.667480,947.056824   C502.249420,944.674194 502.249268,942.091125 502.155518,939.614258   C501.979858,934.974243 500.317230,930.933289 495.460541,929.600403   C490.457001,928.227234 486.895111,931.152344 484.986694,935.249756   C482.767456,940.014465 481.495026,945.220215 479.587738,951.028015  M813.374268,911.784180   C811.821411,914.111755 809.581482,916.237610 808.829163,918.800232   C804.487793,933.588440 800.368958,948.446228 796.482666,963.360657   C795.553467,966.926514 795.938416,970.863525 799.767639,973.023865   C803.760925,975.276611 807.722107,973.689941 810.121948,970.750488   C813.615845,966.471069 816.907288,961.664124 818.818237,956.535522   C822.051758,947.857788 824.456665,938.826904 826.566528,929.794189   C827.555359,925.560669 827.852783,920.820251 827.031921,916.587219   C825.664734,909.536316 820.340393,907.711731 813.374268,911.784180  M337.144135,999.538269   C341.628357,991.445312 341.543427,991.161682 333.373260,986.949097   C321.803589,980.983704 308.887970,984.544739 303.816010,995.100586   C301.214325,1000.515137 301.421875,1005.836426 305.146545,1010.557068   C308.888397,1015.299377 314.117584,1015.825439 319.635376,1014.415588   C327.577820,1012.386169 332.690521,1006.870850 337.144135,999.538269  M1229.852905,947.711304   C1226.661011,948.314636 1223.468994,948.918030 1220.283203,949.520203   C1223.683105,955.109436 1230.460571,957.548218 1238.024292,955.890686   C1244.579102,954.454285 1249.309814,949.213074 1250.064209,942.238892   C1251.410278,929.795349 1245.774658,920.113098 1237.208374,911.559753   C1236.961548,913.454041 1236.975830,915.447754 1237.920044,916.784668   C1245.476685,927.484741 1242.244507,941.166138 1229.852905,947.711304  M407.878632,890.985962   C410.660706,892.024353 413.552734,892.841003 416.199127,894.153076   C420.161530,896.117493 423.459503,895.894531 426.218628,892.200867   C428.769592,888.785889 429.044067,882.541199 426.002808,879.788391   C424.357574,878.299255 420.592560,876.857422 419.281830,877.706604   C414.603943,880.737000 410.544159,884.731445 406.356140,888.479187   C406.142029,888.670837 406.911407,889.961609 407.878632,890.985962  z"></path><path fill="#FDFEFE" stroke="none" d=" M798.392212,469.550507   C868.520081,482.457458 916.613098,521.588257 942.296997,587.781921   C952.107788,613.066711 955.264648,639.514771 952.675903,666.325256   C948.072693,713.998413 928.090027,754.312744 892.364807,786.550720   C891.746582,787.108582 891.041260,787.580688 890.478638,788.187500   C886.113098,792.896240 881.382935,794.781250 874.386841,794.192444   C855.870850,792.634216 842.329163,801.091248 834.248779,817.846497   C832.763062,820.927185 830.906128,822.728333 827.637085,823.854187   C760.049622,847.130127 679.688049,825.142334 632.930054,770.892639   C607.219177,741.062256 591.909302,706.667664 588.372986,667.671387   C580.920532,585.490540 626.672180,510.749451 702.387695,480.442688   C733.050415,468.169189 765.086914,464.244324 798.392212,469.550507  M898.074768,725.589539   C899.396973,723.280579 900.852112,721.036804 902.021851,718.653076   C923.593567,674.693909 925.155579,630.018799 903.796692,585.920227   C879.559326,535.878540 838.493835,507.593750 783.378052,502.080719   C733.791748,497.120789 691.509644,514.422180 658.322083,551.571228   C625.689514,588.099121 614.796509,631.437866 623.696472,679.272461   C629.750793,711.812134 645.676025,739.422791 670.777161,761.298096   C707.635986,793.420227 750.493347,805.630005 798.362183,796.333801   C841.550293,787.946655 874.680786,763.877930 898.074768,725.589539  z"></path><path fill="#CEEEFF" stroke="none" d=" M1144.925537,631.076660   C1164.388794,653.297729 1169.070923,678.529419 1161.902100,706.755554   C1195.966797,714.114319 1223.516479,731.201416 1242.446167,760.937439   C1254.815430,780.368164 1260.928467,801.615234 1261.018311,825.087769   C1237.345459,822.001343 1218.186646,828.158813 1206.359375,850.044739   C1202.298340,846.419617 1198.625610,842.328308 1194.204712,839.346191   C1180.540649,830.129272 1165.906250,829.966980 1150.781982,835.542847   C1148.263306,836.471375 1145.311401,836.905579 1142.646851,836.652466   C1118.378296,834.347290 1098.020386,841.670593 1082.324341,860.710449   C1080.536377,862.879211 1079.080078,865.321289 1077.431885,867.691467   C1071.551514,864.805786 1065.606201,861.977417 1059.769043,858.941162   C1058.723633,858.397339 1058.104980,857.009705 1057.323853,855.985291   C1053.912354,851.511475 1050.360107,847.132812 1047.191040,842.492676   C1046.035645,840.801086 1044.944336,838.325684 1045.275635,836.466492   C1054.655762,783.828003 1064.237183,731.225342 1073.749756,678.610413   C1077.856445,655.896179 1081.978638,633.183777 1085.848267,610.428833   C1086.458740,606.840149 1087.692993,605.735657 1091.257812,605.966614   C1112.315918,607.331116 1130.172485,615.441956 1144.925537,631.076660  z"></path><path fill="#CEEEFF" stroke="none" d=" M390.138916,679.121826   C393.990509,677.890198 397.460754,676.760437 401.429810,675.468323   C391.332092,649.085938 392.900024,623.709534 409.087250,600.054260   C418.248383,586.666565 430.482117,577.082947 446.513092,571.547607   C464.799011,673.188904 483.000580,774.361328 501.252563,875.813843   C495.159027,875.813843 489.570007,875.813843 484.227020,875.813843   C482.423248,869.489624 481.202118,863.261719 478.898254,857.464050   C468.279785,830.742737 440.641144,815.297302 412.219116,819.455322   C398.964417,821.394531 386.740601,825.561768 375.758850,833.309570   C374.718262,834.043762 372.849152,834.689209 371.861969,834.252319   C354.055817,826.370972 335.639404,825.038208 316.780121,828.941406   C297.844360,777.509888 320.520782,704.697327 390.138916,679.121826  z"></path><path fill="#FBFCFD" stroke="none" d=" M738.711670,1124.524414   C738.806702,1119.067993 738.916199,1114.069580 738.965881,1109.070557   C739.009949,1104.637695 741.122131,1102.175049 745.625916,1102.106689   C750.069031,1102.039307 752.709290,1104.413330 752.676270,1108.762573   C752.561218,1123.925049 752.327698,1139.091064 751.735229,1154.239868   C751.658264,1156.208252 749.350769,1159.551270 747.847717,1159.684814   C745.082214,1159.930786 741.323547,1159.091064 739.449097,1157.226074   C735.231934,1153.030029 731.906433,1147.936035 728.231506,1143.197021   C724.374329,1138.223267 720.532776,1133.237061 716.039124,1127.421265   C715.763550,1129.665161 715.489014,1131.002563 715.452881,1132.346313   C715.273865,1139.009277 715.207275,1145.675537 715.003235,1152.337646   C714.847412,1157.426514 712.664124,1159.754395 708.258118,1159.774780   C703.770569,1159.795410 701.155518,1157.413452 701.206055,1152.575073   C701.360779,1137.745728 701.579346,1122.911621 702.213928,1108.098389   C702.304749,1105.978027 704.602295,1102.495361 706.280090,1102.235474   C708.913269,1101.827515 712.830566,1102.767700 714.544495,1104.648804   C720.024963,1110.663574 724.743591,1117.372925 729.753235,1123.816528   C732.287292,1127.075928 734.814575,1130.340454 738.263428,1134.786865   C738.446655,1130.673706 738.573364,1127.828003 738.711670,1124.524414  z"></path><path fill="#FBFCFD" stroke="none" d=" M897.644775,1134.444702   C898.382935,1135.345947 898.888489,1135.960571 900.195435,1137.549316   C900.367310,1134.513184 900.534058,1132.498413 900.585999,1130.480713   C900.753174,1123.991089 900.790161,1117.496948 901.052490,1111.011597   C901.204834,1107.246338 903.494080,1105.323364 907.177917,1105.117188   C910.965820,1104.905396 913.717590,1106.390503 914.506897,1110.327759   C914.829102,1111.935059 914.755127,1113.639160 914.725647,1115.296753   C914.489319,1128.611206 914.199585,1141.924927 913.976379,1155.239624   C913.920715,1158.557495 913.590210,1161.829346 909.875977,1162.936035   C906.186218,1164.035278 903.059448,1162.788574 900.652771,1159.656006   C893.369629,1150.176270 886.024231,1140.744385 878.139954,1130.566772   C877.827759,1132.461670 877.501038,1133.612915 877.469299,1134.772339   C877.273376,1141.927124 877.167542,1149.084473 876.983276,1156.239624   C876.873657,1160.497314 874.494446,1162.605225 870.366638,1162.757690   C866.056458,1162.916992 863.207764,1160.595459 863.241150,1156.195923   C863.356140,1141.050171 863.618530,1125.900879 864.227051,1110.769165   C864.306885,1108.781860 866.404846,1105.709595 868.135620,1105.242554   C870.427246,1104.624023 873.933655,1105.295532 875.742920,1106.813477   C878.866028,1109.433594 881.117981,1113.106201 883.673950,1116.385132   C888.277344,1122.290771 892.835266,1128.231812 897.644775,1134.444702  z"></path><path fill="#FAFCFD" stroke="none" d=" M637.700684,1154.392700   C625.021240,1144.938354 621.544434,1126.406250 629.699341,1113.092651   C636.980225,1101.205933 654.062256,1096.786499 667.749756,1103.248291   C680.532227,1109.282837 686.378540,1124.855957 681.554749,1140.021729   C677.213379,1153.670532 663.559326,1161.473633 648.686035,1158.472412   C645.012207,1157.730957 641.552734,1155.926880 637.700684,1154.392700  M667.232300,1133.592529   C667.137207,1130.123291 667.467224,1126.577026 666.854980,1123.201660   C665.724915,1116.971191 661.098389,1113.217896 655.090210,1112.949341   C648.537048,1112.656494 643.835693,1115.765503 642.083435,1122.201416   C641.226746,1125.347778 640.950623,1128.760864 641.042419,1132.035645   C641.278259,1140.447021 645.778625,1145.734131 652.738647,1146.318726   C660.586975,1146.978149 665.059021,1143.271362 667.232300,1133.592529  z"></path><path fill="#FAFCFD" stroke="none" d=" M953.129211,1163.535400   C948.820801,1163.399048 944.994812,1163.274658 941.168701,1163.154541   C936.533447,1163.009155 933.991577,1160.614624 934.050598,1155.985962   C934.231018,1141.840820 934.545349,1127.697388 934.815552,1113.553467   C934.906311,1108.805542 937.645081,1106.468628 942.092285,1106.477173   C951.576843,1106.495361 961.061890,1106.779785 970.544434,1107.038330   C974.026306,1107.133301 975.651428,1109.339966 975.648987,1112.579956   C975.646606,1115.737915 974.244568,1118.112305 970.711426,1118.308105   C968.391907,1118.436768 966.057312,1118.283203 963.729492,1118.278809   C958.945984,1118.269775 954.162476,1118.276123 949.115845,1118.276123   C949.115845,1121.744019 949.115845,1124.996216 949.115845,1129.046509   C954.966858,1129.046509 960.743225,1129.096069 966.518311,1129.029663   C970.576477,1128.983032 973.450989,1130.270996 973.432434,1134.875122   C973.413940,1139.468018 970.513367,1140.755615 966.476562,1140.718994   C960.823303,1140.667603 955.169128,1140.705933 948.936890,1140.705933   C948.936890,1144.081665 948.936890,1147.773071 948.936890,1152.126221   C955.066650,1152.126221 961.366821,1152.054077 967.664490,1152.148560   C972.848389,1152.226196 975.113281,1154.207642 974.858887,1158.275146   C974.572021,1162.861938 971.559387,1163.952393 967.589478,1163.833374   C962.931519,1163.693481 958.270996,1163.640137 953.129211,1163.535400  z"></path><path fill="#F9FBFD" stroke="none" d=" M791.098328,1160.545532   C786.617188,1160.404663 782.619202,1160.320068 778.625732,1160.135986   C774.216614,1159.932861 771.832458,1157.552124 771.867432,1153.147217   C771.978455,1139.154175 772.084106,1125.159180 772.431213,1111.171021   C772.564453,1105.801270 775.467041,1103.156494 780.109070,1103.305054   C784.838196,1103.456177 787.228699,1106.125732 787.254211,1111.596558   C787.309998,1123.554077 787.271484,1135.512085 787.271484,1148.192505   C792.980042,1148.192505 798.760254,1148.116821 804.537537,1148.213867   C810.188782,1148.308838 812.823914,1150.521240 812.650635,1154.762573   C812.483276,1158.861206 809.940186,1160.811279 804.575317,1160.795410   C800.244446,1160.782593 795.914062,1160.641968 791.098328,1160.545532  z"></path><path fill="#FAFCFD" stroke="none" d=" M839.119751,1161.452637   C830.882568,1162.455566 828.355103,1160.241699 828.459473,1152.382935   C828.636108,1139.087036 828.860168,1125.791626 829.130127,1112.497192   C829.255920,1106.302612 831.642578,1103.722290 836.887573,1103.836304   C841.980164,1103.947021 844.088135,1106.371704 844.022644,1112.450684   C843.877747,1125.913452 843.657288,1139.375488 843.399353,1152.836548   C843.335510,1156.172363 843.274231,1159.625732 839.119751,1161.452637  z"></path><path fill="#F9FBFD" stroke="none" d=" M593.072266,1151.542480   C592.600525,1147.038086 593.926941,1143.380127 598.065613,1142.635620   C600.776794,1142.147949 604.990540,1142.844727 606.485168,1144.678711   C608.143372,1146.713135 608.431335,1150.982422 607.496277,1153.637817   C606.819763,1155.558960 603.284424,1157.256714 600.827271,1157.586060   C597.040955,1158.093384 594.243347,1155.810181 593.072266,1151.542480  z"></path><path fill="#1995ED" stroke="none" d=" M773.162964,869.802856   C770.819397,868.006470 768.746765,866.437683 765.948853,864.319885   C772.275146,864.319885 777.710449,864.319885 783.145752,864.319885   C783.320984,864.700317 783.496277,865.080750 783.671509,865.461182   C780.258972,866.984253 776.846436,868.507385 773.162964,869.802856  z"></path><path fill="#4791CF" stroke="none" d=" M556.957642,665.479004   C556.616638,662.573242 556.066040,659.207336 556.044434,655.838013   C556.001160,649.104980 556.247864,642.370056 556.654175,635.335205   C556.951477,645.028748 556.969421,655.023010 556.957642,665.479004  z"></path><path fill="#4791CF" stroke="none" d=" M984.043884,635.531372   C984.384644,638.764343 984.919006,642.455566 984.955322,646.151672   C985.014954,652.219849 984.751465,658.291260 984.346008,664.662292   C984.049744,655.306152 984.031738,645.648987 984.043884,635.531372  z"></path><path fill="#00529C" stroke="none" d=" M994.940308,427.955841   C1013.261230,428.209961 1027.807251,441.239868 1030.093384,458.924805   C1032.039673,473.980011 1027.042847,486.230042 1014.468201,494.606323   C1001.558533,503.205688 987.926453,503.399384 974.545166,495.259094   C963.075867,488.281891 957.419006,477.468872 957.408081,464.479279   C957.396423,450.679443 963.400696,439.553833 975.878906,432.428070   C981.715881,429.094818 987.835022,427.628601 994.940308,427.955841  z"></path><path fill="#00539E" stroke="none" d=" M584.471069,436.189636   C596.509705,438.790588 600.790222,442.541718 602.092285,451.285278   C603.604980,461.443024 596.195068,470.760284 585.828491,470.857788   C561.533447,471.086365 537.233215,471.091705 512.938293,470.856842   C503.100372,470.761719 495.785858,462.620239 496.005127,453.003967   C496.229462,443.165192 504.060059,436.232056 515.628967,436.164551   C538.427490,436.031464 561.227478,436.138824 584.471069,436.189636  z"></path><path fill="#0F5AA4" stroke="none" d=" M916.891724,920.822144   C917.868896,917.404236 918.599426,914.320618 919.696350,911.373230   C922.303406,904.368042 927.806213,900.995361 934.928772,900.322937   C941.716003,899.682129 946.335815,904.449219 945.879883,911.353394   C945.705750,913.990295 945.090027,916.606750 944.560852,919.209167   C944.065918,921.643555 943.419373,924.047180 942.771606,926.747314   C933.145325,927.423889 926.299255,932.134521 923.416687,941.667236   C920.971313,949.754089 923.051025,955.348755 930.636536,962.343018   C928.656616,970.508728 921.318054,975.417236 913.191345,973.985107   C909.523132,973.338684 906.864014,971.169250 906.547485,967.525940   C906.209106,963.630127 906.174622,959.489929 907.126953,955.740784   C910.068604,944.160522 913.543640,932.715820 916.891724,920.822144  z"></path><path fill="#0E5AA4" stroke="none" d=" M716.548035,919.592896   C720.078186,925.232361 718.969971,930.872192 717.641968,936.380859   C714.914978,947.692505 711.975098,958.953796 709.030090,970.211487   C707.490784,976.095947 705.356750,981.984131 699.913147,985.161926   C697.101318,986.803345 692.792175,987.729248 689.831482,986.811279   C685.885071,985.587585 685.590515,980.907593 686.450745,977.320129   C690.558594,960.188599 694.920288,943.116638 699.372192,926.070618   C699.939270,923.899292 701.325867,921.815552 702.745789,920.017395   C706.769653,914.921570 711.352478,914.758972 716.548035,919.592896  z"></path><path fill="#0D59A3" stroke="none" d=" M1119.284424,925.345703   C1121.257568,917.712891 1122.868652,910.397644 1125.074341,903.266479   C1126.177246,899.700623 1127.816284,896.011292 1130.178345,893.184753   C1135.026733,887.383118 1142.958618,889.185242 1144.718872,896.523132   C1145.615234,900.260132 1145.576050,904.559204 1144.714233,908.318848   C1141.784302,921.101196 1138.412598,933.787109 1134.975830,946.446289   C1133.464722,952.011963 1130.778564,957.230774 1125.342041,959.786865   C1122.760742,961.000366 1118.663208,961.723267 1116.572510,960.468689   C1114.520996,959.237671 1112.895020,955.038086 1113.265015,952.453674   C1114.389526,944.596802 1116.566772,936.890381 1118.339966,929.126770   C1118.598755,927.993713 1118.891235,926.868286 1119.284424,925.345703  z"></path><path fill="#0D59A3" stroke="none" d=" M479.699707,950.631287   C481.495026,945.220215 482.767456,940.014465 484.986694,935.249756   C486.895111,931.152344 490.457001,928.227234 495.460541,929.600403   C500.317230,930.933289 501.979858,934.974243 502.155518,939.614258   C502.249268,942.091125 502.249420,944.674194 501.667480,947.056824   C498.514984,959.964111 495.302948,972.860352 491.826691,985.683289   C490.229279,991.575623 487.274963,996.819031 481.533508,999.776855   C474.808167,1003.241638 469.823303,1000.239075 469.932648,992.707947   C469.973206,989.916687 470.483093,987.081970 471.151947,984.358704   C473.885437,973.229187 476.763123,962.135132 479.699707,950.631287  z"></path><path fill="#0E5AA4" stroke="none" d=" M813.646851,911.532593   C820.340393,907.711731 825.664734,909.536316 827.031921,916.587219   C827.852783,920.820251 827.555359,925.560669 826.566528,929.794189   C824.456665,938.826904 822.051758,947.857788 818.818237,956.535522   C816.907288,961.664124 813.615845,966.471069 810.121948,970.750488   C807.722107,973.689941 803.760925,975.276611 799.767639,973.023865   C795.938416,970.863525 795.553467,966.926514 796.482666,963.360657   C800.368958,948.446228 804.487793,933.588440 808.829163,918.800232   C809.581482,916.237610 811.821411,914.111755 813.646851,911.532593  z"></path><path fill="#0D59A3" stroke="none" d=" M336.984863,999.870789   C332.690521,1006.870850 327.577820,1012.386169 319.635376,1014.415588   C314.117584,1015.825439 308.888397,1015.299377 305.146545,1010.557068   C301.421875,1005.836426 301.214325,1000.515137 303.816010,995.100586   C308.887970,984.544739 321.803589,980.983704 333.373260,986.949097   C341.543427,991.161682 341.628357,991.445312 336.984863,999.870789  z"></path><path fill="#115CA5" stroke="none" d=" M1230.197998,947.529297   C1242.244507,941.166138 1245.476685,927.484741 1237.920044,916.784668   C1236.975830,915.447754 1236.961548,913.454041 1237.208374,911.559753   C1245.774658,920.113098 1251.410278,929.795349 1250.064209,942.238892   C1249.309814,949.213074 1244.579102,954.454285 1238.024292,955.890686   C1230.460571,957.548218 1223.683105,955.109436 1220.283203,949.520203   C1223.468994,948.918030 1226.661011,948.314636 1230.197998,947.529297  z"></path><path fill="#115CA5" stroke="none" d=" M407.550720,890.863281   C406.911407,889.961609 406.142029,888.670837 406.356140,888.479187   C410.544159,884.731445 414.603943,880.737000 419.281830,877.706604   C420.592560,876.857422 424.357574,878.299255 426.002808,879.788391   C429.044067,882.541199 428.769592,888.785889 426.218628,892.200867   C423.459503,895.894531 420.161530,896.117493 416.199127,894.153076   C413.552734,892.841003 410.660706,892.024353 407.550720,890.863281  z"></path><path fill="#0E5AA3" stroke="none" d=" M897.906677,725.913086   C874.680786,763.877930 841.550293,787.946655 798.362183,796.333801   C750.493347,805.630005 707.635986,793.420227 670.777161,761.298096   C645.676025,739.422791 629.750793,711.812134 623.696472,679.272461   C614.796509,631.437866 625.689514,588.099121 658.322083,551.571228   C691.509644,514.422180 733.791748,497.120789 783.378052,502.080719   C838.493835,507.593750 879.559326,535.878540 903.796692,585.920227   C925.155579,630.018799 923.593567,674.693909 902.021851,718.653076   C900.852112,721.036804 899.396973,723.280579 897.906677,725.913086  M795.957397,519.258911   C791.014282,518.551453 786.092468,517.494873 781.124695,517.191650   C741.224609,514.755981 705.900879,526.022827 677.200378,554.285339   C643.179993,587.786499 630.489807,628.711792 638.942627,675.650574   C644.311829,705.465393 658.992126,730.518372 681.939453,750.348755   C715.398376,779.262878 754.366211,789.409912 797.352417,780.373108   C842.259644,770.932434 874.321655,744.093140 892.374512,701.947571   C908.951477,663.247498 906.984680,624.455261 887.203003,587.340332   C867.778198,550.894714 837.125977,528.510193 795.957397,519.258911  z"></path><path fill="#0D59A3" stroke="none" d=" M667.174561,1133.996826   C665.059021,1143.271362 660.586975,1146.978149 652.738647,1146.318726   C645.778625,1145.734131 641.278259,1140.447021 641.042419,1132.035645   C640.950623,1128.760864 641.226746,1125.347778 642.083435,1122.201416   C643.835693,1115.765503 648.537048,1112.656494 655.090210,1112.949341   C661.098389,1113.217896 665.724915,1116.971191 666.854980,1123.201660   C667.467224,1126.577026 667.137207,1130.123291 667.174561,1133.996826  z"></path><path fill="#FEFEFF" stroke="none" d=" M796.359863,519.396240   C837.125977,528.510193 867.778198,550.894714 887.203003,587.340332   C906.984680,624.455261 908.951477,663.247498 892.374512,701.947571   C874.321655,744.093140 842.259644,770.932434 797.352417,780.373108   C754.366211,789.409912 715.398376,779.262878 681.939453,750.348755   C658.992126,730.518372 644.311829,705.465393 638.942627,675.650574   C630.489807,628.711792 643.179993,587.786499 677.200378,554.285339   C705.900879,526.022827 741.224609,514.755981 781.124695,517.191650   C786.092468,517.494873 791.014282,518.551453 796.359863,519.396240  M833.086426,626.093506   C832.962646,625.969910 832.838867,625.846252 832.937683,625.043213   C837.234924,617.967102 838.593384,610.496216 835.570618,602.613098   C834.002930,598.524780 830.799988,596.184814 826.387634,596.058411   C821.904602,595.929871 818.557434,598.280762 817.097778,602.342041   C815.885864,605.714172 815.313232,609.416443 815.065186,613.014404   C814.469177,621.659790 812.611511,629.765625 807.072571,636.727844   C796.602234,649.888672 775.514099,655.194519 756.806213,649.299316   C736.405029,642.870544 717.937317,649.094055 705.359619,666.486267   C702.441589,670.521301 699.487183,674.628479 695.963196,678.108765   C684.349060,689.578613 670.417847,689.961792 657.939941,679.503845   C656.817932,678.563477 655.749451,677.559326 653.974609,675.977173   C654.274841,677.957825 654.356934,679.046143 654.610413,680.092957   C668.900208,739.106506 726.801086,777.182861 787.494385,767.001404   C862.772461,754.373413 905.868469,674.322510 874.435242,603.726562   C872.887634,600.250854 871.232239,596.686951 868.918701,593.715759   C863.655823,586.957214 855.954102,587.720276 851.984314,595.256836   C850.609924,597.866089 849.842896,600.817749 848.973633,603.666443   C846.158386,612.891724 842.627319,621.599915 833.086426,626.093506  M831.156494,588.647888   C832.096741,587.742493 833.293640,586.987549 833.929199,585.903564   C835.840271,582.643677 835.396423,579.518738 832.619263,576.927551   C829.992249,574.476440 826.940674,574.259827 823.962830,576.147949   C820.754028,578.182434 819.748108,581.335327 821.143677,584.780884   C822.831604,588.948242 826.215881,590.133240 831.156494,588.647888  z"></path><path fill="#38AAE1" stroke="none" d=" M833.444214,626.477661   C842.627319,621.599915 846.158386,612.891724 848.973633,603.666443   C849.842896,600.817749 850.609924,597.866089 851.984314,595.256836   C855.954102,587.720276 863.655823,586.957214 868.918701,593.715759   C871.232239,596.686951 872.887634,600.250854 874.435242,603.726562   C905.868469,674.322510 862.772461,754.373413 787.494385,767.001404   C726.801086,777.182861 668.900208,739.106506 654.610413,680.092957   C654.356934,679.046143 654.274841,677.957825 653.974609,675.977173   C655.749451,677.559326 656.817932,678.563477 657.939941,679.503845   C670.417847,689.961792 684.349060,689.578613 695.963196,678.108765   C699.487183,674.628479 702.441589,670.521301 705.359619,666.486267   C717.937317,649.094055 736.405029,642.870544 756.806213,649.299316   C775.514099,655.194519 796.602234,649.888672 807.072571,636.727844   C812.611511,629.765625 814.469177,621.659790 815.065186,613.014404   C815.313232,609.416443 815.885864,605.714172 817.097778,602.342041   C818.557434,598.280762 821.904602,595.929871 826.387634,596.058411   C830.799988,596.184814 834.002930,598.524780 835.570618,602.613098   C838.593384,610.496216 837.234924,617.967102 832.596924,625.544922   C832.273071,626.301758 832.289917,626.556885 832.306763,626.812073   C832.685913,626.700562 833.065063,626.589111 833.444214,626.477661  M669.021057,705.730347   C668.907654,705.737793 668.794312,705.745239 668.680908,705.752686   C668.796814,705.832031 668.912659,705.911377 669.144775,706.677979   C675.420654,715.040833 681.751282,723.363281 687.949890,731.783020   C691.188416,736.181946 695.505066,736.489441 700.345642,735.723267   C712.412781,733.813171 723.106812,728.707031 733.414490,722.351685   C737.421021,719.881409 742.134216,717.281006 746.612915,717.116272   C756.154602,716.765320 765.908813,717.079712 775.296631,718.719849   C794.934387,722.150879 812.732788,719.786194 828.002869,705.922791   C830.331909,703.808228 832.906006,701.912109 835.561707,700.221130   C839.162537,697.928345 842.381287,699.199158 844.807983,702.224060   C847.343689,705.384949 846.094360,708.704834 843.962158,711.401855   C840.093567,716.295410 835.881226,720.917236 831.812378,725.652466   C832.254761,725.117188 833.844604,725.410706 835.413574,725.324402   C849.401611,724.554749 859.977844,717.015198 866.912231,705.925720   C878.037720,688.134033 881.596375,667.971497 881.068176,647.054565   C880.980347,643.574890 879.370178,642.176270 876.528320,643.149963   C872.519287,644.523560 868.023193,645.890198 865.097351,648.685486   C860.479309,653.097107 856.600952,658.440430 853.116821,663.845337   C847.610413,672.387329 840.344604,678.036316 829.356750,681.074036   C831.335388,678.335083 832.741760,676.855591 833.608032,675.108398   C837.421143,667.417114 841.519409,659.818787 844.600464,651.834106   C846.075256,648.012024 844.670227,643.551880 839.949402,642.118896   C835.337708,640.718994 832.656982,643.369446 830.512817,647.388672   C826.994446,653.983948 823.357178,660.576721 819.101196,666.706055   C806.831421,684.376587 786.738403,692.499817 767.353943,687.878967   C761.053955,686.377197 754.887817,684.323242 748.622986,682.663147   C735.290344,679.130188 723.717285,681.554932 714.199219,692.282349   C707.893066,699.389893 700.140930,704.987549 690.540344,706.178101   C683.456116,707.056641 676.151733,706.159851 669.021057,705.730347  M846.945068,625.695251   C842.102417,627.528625 839.946167,631.042847 841.236084,634.999756   C842.370117,638.478455 846.456116,640.735779 849.948730,639.813232   C853.771423,638.803406 856.021667,634.950989 854.998840,630.902161   C854.051147,627.150513 851.286194,625.700867 846.945068,625.695251  z"></path><path fill="#3DACE2" stroke="none" d=" M830.817932,588.797485   C826.215881,590.133240 822.831604,588.948242 821.143677,584.780884   C819.748108,581.335327 820.754028,578.182434 823.962830,576.147949   C826.940674,574.259827 829.992249,574.476440 832.619263,576.927551   C835.396423,579.518738 835.840271,582.643677 833.929199,585.903564   C833.293640,586.987549 832.096741,587.742493 830.817932,588.797485  z"></path><path fill="#FDFEFF" stroke="none" d=" M668.945435,706.054016   C676.151733,706.159851 683.456116,707.056641 690.540344,706.178101   C700.140930,704.987549 707.893066,699.389893 714.199219,692.282349   C723.717285,681.554932 735.290344,679.130188 748.622986,682.663147   C754.887817,684.323242 761.053955,686.377197 767.353943,687.878967   C786.738403,692.499817 806.831421,684.376587 819.101196,666.706055   C823.357178,660.576721 826.994446,653.983948 830.512817,647.388672   C832.656982,643.369446 835.337708,640.718994 839.949402,642.118896   C844.670227,643.551880 846.075256,648.012024 844.600464,651.834106   C841.519409,659.818787 837.421143,667.417114 833.608032,675.108398   C832.741760,676.855591 831.335388,678.335083 829.356750,681.074036   C840.344604,678.036316 847.610413,672.387329 853.116821,663.845337   C856.600952,658.440430 860.479309,653.097107 865.097351,648.685486   C868.023193,645.890198 872.519287,644.523560 876.528320,643.149963   C879.370178,642.176270 880.980347,643.574890 881.068176,647.054565   C881.596375,667.971497 878.037720,688.134033 866.912231,705.925720   C859.977844,717.015198 849.401611,724.554749 835.413574,725.324402   C833.844604,725.410706 832.254761,725.117188 831.812378,725.652466   C835.881226,720.917236 840.093567,716.295410 843.962158,711.401855   C846.094360,708.704834 847.343689,705.384949 844.807983,702.224060   C842.381287,699.199158 839.162537,697.928345 835.561707,700.221130   C832.906006,701.912109 830.331909,703.808228 828.002869,705.922791   C812.732788,719.786194 794.934387,722.150879 775.296631,718.719849   C765.908813,717.079712 756.154602,716.765320 746.612915,717.116272   C742.134216,717.281006 737.421021,719.881409 733.414490,722.351685   C723.106812,728.707031 712.412781,733.813171 700.345642,735.723267   C695.505066,736.489441 691.188416,736.181946 687.949890,731.783020   C681.751282,723.363281 675.420654,715.040833 669.064758,706.348633   C668.984741,706.019348 668.945435,706.054016 668.945435,706.054016  M854.863342,697.384094   C858.351807,694.554810 859.325317,691.052002 856.727051,687.314026   C854.497742,684.106873 851.191467,682.997375 847.538269,685.059204   C843.978394,687.068481 843.059082,690.355591 844.265320,694.078247   C845.497192,697.880005 849.223267,699.153503 854.863342,697.384094  z"></path><path fill="#F9FBFD" stroke="none" d=" M847.298950,625.610596   C851.286194,625.700867 854.051147,627.150513 854.998840,630.902161   C856.021667,634.950989 853.771423,638.803406 849.948730,639.813232   C846.456116,640.735779 842.370117,638.478455 841.236084,634.999756   C839.946167,631.042847 842.102417,627.528625 847.298950,625.610596  z"></path><path fill="#FDFEFF" stroke="none" d=" M669.006653,706.005005   C668.912659,705.911377 668.796814,705.832031 668.680908,705.752686   C668.794312,705.745239 668.907654,705.737793 668.983276,705.892212   C668.945435,706.054016 668.984741,706.019348 669.006653,706.005005  z"></path><path fill="#FEFEFF" stroke="none" d=" M833.265320,626.285583   C833.065063,626.589111 832.685913,626.700562 832.306763,626.812073   C832.289917,626.556885 832.273071,626.301758 832.485596,625.884583   C832.838867,625.846252 832.962646,625.969910 833.265320,626.285583  z"></path><path fill="#3DACE2" stroke="none" d=" M854.547363,697.592285   C849.223267,699.153503 845.497192,697.880005 844.265320,694.078247   C843.059082,690.355591 843.978394,687.068481 847.538269,685.059204   C851.191467,682.997375 854.497742,684.106873 856.727051,687.314026   C859.325317,691.052002 858.351807,694.554810 854.547363,697.592285  z"></path></svg>